<svg xmlns="http://www.w3.org/2000/svg" xmlns:xlink="http://www.w3.org/1999/xlink" xmlns:lucid="lucid" width="1098.65" height="606.88"><g transform="translate(-274.0226288689229 -209.1573925436353)" lucid:page-tab-id="0_0"><path d="M752.95 812.04a6 6 0 0 1-6-6V219.16a6 6 0 0 1 6-6H868a6 6 0 0 1 6 6v586.88a6 6 0 0 1-6 6z" stroke="#e81313" stroke-width="8" fill="#f8ad96"/><use xlink:href="#a" transform="matrix(6.123233995736766e-17,-1,1,6.123233995736766e-17,758.9474646933048,800.0383343906798) translate(58.871111111111105 73.89000000000001)"/><path d="M561.77 258.8h106.98M561.88 258.8h-4.1" stroke="#1071e5" stroke-width="8" fill="none"/><path d="M687.02 258.8l-14.27 4.63v-9.27z" stroke="#1071e5" stroke-width="8" fill="#1071e5"/><path d="M274.02 230.56a6 6 0 0 1 6-6h247.6a6 6 0 0 1 6 6v56.47a6 6 0 0 1-6 6h-247.6a6 6 0 0 1-6-6z" fill="none"/><use xlink:href="#b" transform="matrix(1,0,0,1,286.0226288689229,236.56235511982783) translate(130.31555555555553 37.57333333333334)"/><path d="M557.03 721.68a6 6 0 0 1 5.98-6.02l104.84-.34a6 6 0 0 0 5.98-6.02l-.02-8.6a2.27 2.27 0 0 1 3.96-1.5l24.2 27.26a6.8 6.8 0 0 1 .04 9l-24.04 27.43a2.27 2.27 0 0 1-3.97-1.5l-.04-8.6a6 6 0 0 0-6.02-5.98l-104.83.33a6 6 0 0 1-6-5.98z" stroke="#1071e5" stroke-width="8" fill="#58c2bf"/><path d="M274.02 686.5a6 6 0 0 1 6-6h245.8a6 6 0 0 1 6 6v88.24a6 6 0 0 1-6 6H280a6 6 0 0 1-6-6z" fill="none"/><use xlink:href="#c" transform="matrix(1,0,0,1,286.0226288689229,692.5151013520945) translate(101.84 53.57333333333334)"/><path d="M561.77 337.47h106.98M561.88 337.47h-4.1" stroke="#1071e5" stroke-width="8" fill="none"/><path d="M687.02 337.47l-14.27 4.64v-9.26z" stroke="#1071e5" stroke-width="8" fill="#1071e5"/><path d="M274.02 309.24a6 6 0 0 1 6-6h247.6a6 6 0 0 1 6 6v56.47a6 6 0 0 1-6 6h-247.6a6 6 0 0 1-6-6z" fill="none"/><use xlink:href="#d" transform="matrix(1,0,0,1,286.0226288689229,315.2404006595703) translate(133.20888888888888 37.57333333333334)"/><path d="M561.77 472.5h106.98M561.88 472.5h-4.1" stroke="#1071e5" stroke-width="8" fill="none"/><path d="M687.02 472.5l-14.27 4.64v-9.27z" stroke="#1071e5" stroke-width="8" fill="#1071e5"/><path d="M274.02 444.27a6 6 0 0 1 6-6h247.6a6 6 0 0 1 6 6v56.47a6 6 0 0 1-6 6h-247.6a6 6 0 0 1-6-6z" fill="none"/><use xlink:href="#e" transform="matrix(1,0,0,1,286.0226288689229,450.267738915165) translate(86.26222222222222 37.57333333333334)"/><path d="M588.98 551.18h106.98" stroke="#1071e5" stroke-width="8" fill="none"/><path d="M570.72 551.18l14.26-4.64v9.28z" stroke="#1071e5" stroke-width="8" fill="#1071e5"/><path d="M695.86 551.18h4.1" stroke="#1071e5" stroke-width="8" fill="none"/><path d="M274.02 522.95a6 6 0 0 1 6-6h247.6a6 6 0 0 1 6 6v56.46a6 6 0 0 1-6 6h-247.6a6 6 0 0 1-6-6z" fill="none"/><use xlink:href="#f" transform="matrix(1,0,0,1,286.0226288689229,528.9457844549074) translate(83.46222222222221 37.57333333333334)"/><path d="M561.77 629.86h106.98M561.88 629.86h-4.1" stroke="#1071e5" stroke-width="8" fill="none"/><path d="M687.02 629.86l-14.27 4.63v-9.28z" stroke="#1071e5" stroke-width="8" fill="#1071e5"/><path d="M274.02 601.62a6 6 0 0 1 6-6h247.6a6 6 0 0 1 6 6v56.47a6 6 0 0 1-6 6h-247.6a6 6 0 0 1-6-6z" fill="none"/><use xlink:href="#g" transform="matrix(1,0,0,1,286.0226288689229,607.6238299946499) translate(83.27555555555557 37.57333333333334)"/><path d="M930.58 721.12a6 6 0 0 1 5.98-6.02l104.83-.34a6 6 0 0 0 5.97-6.02l-.02-8.6a2.27 2.27 0 0 1 3.96-1.5l24.22 27.26a6.8 6.8 0 0 1 .03 9l-24.04 27.43a2.27 2.27 0 0 1-3.96-1.5l-.03-8.6a6 6 0 0 0-6-5.97l-104.84.33a6 6 0 0 1-6.02-6z" stroke="#1071e5" stroke-width="8" fill="#58c2bf"/><path d="M933.5 472.5h106.98M933.6 472.5h-4.1" stroke="#1071e5" stroke-width="8" fill="none"/><path d="M1058.75 472.5l-14.27 4.64v-9.27z" stroke="#1071e5" stroke-width="8" fill="#1071e5"/><path d="M960.72 551.18h106.97" stroke="#1071e5" stroke-width="8" fill="none"/><path d="M942.45 551.18l14.27-4.64v9.28z" stroke="#1071e5" stroke-width="8" fill="#1071e5"/><path d="M1067.6 551.18h4.1M933.5 629.86h106.98M933.6 629.86h-4.1" stroke="#1071e5" stroke-width="8" fill="none"/><path d="M1058.75 629.86l-14.27 4.63v-9.28z" stroke="#1071e5" stroke-width="8" fill="#1071e5"/><path d="M1114.9 685.96a6 6 0 0 1 6-6h245.77a6 6 0 0 1 6 6v88.22a6 6 0 0 1-6 6H1120.9a6 6 0 0 1-6-6z" fill="none"/><use xlink:href="#h" transform="matrix(1,0,0,1,1126.8873536586732,691.9554028908902) translate(0 53.57333333333334)"/><path d="M1113.07 444.27a6 6 0 0 1 6-6h247.6a6 6 0 0 1 6 6v56.47a6 6 0 0 1-6 6h-247.6a6 6 0 0 1-6-6z" fill="none"/><use xlink:href="#i" transform="matrix(1,0,0,1,1125.0705228609968,450.267738915165) translate(0 37.57333333333334)"/><path d="M1113.07 522.95a6 6 0 0 1 6-6h247.6a6 6 0 0 1 6 6v56.46a6 6 0 0 1-6 6h-247.6a6 6 0 0 1-6-6z" fill="none"/><use xlink:href="#j" transform="matrix(1,0,0,1,1125.0705228609968,528.9457844549074) translate(0 37.57333333333334)"/><path d="M1113.07 601.62a6 6 0 0 1 6-6h247.6a6 6 0 0 1 6 6v56.47a6 6 0 0 1-6 6h-247.6a6 6 0 0 1-6-6z" fill="none"/><use xlink:href="#k" transform="matrix(1,0,0,1,1125.0705228609968,607.6238299946499) translate(0 37.57333333333334)"/><defs><path fill="#e81313" d="M521-275c40-33 108-24 108 34 0 49-75 103-210 183-80 47-247 72-323 10-66-54-95-101-82-218 12-106 41-136 91-224 55-96 145-209 240-278 32-23 68-33 107-33 86 2 108 61 107 158 0 55-15 82-44 82-55 1-25-116-79-110-132 15-229 223-291 334-48 86-31 226 81 218 122-9 217-92 295-156" id="l"/><path fill="#e81313" d="M44-443c79-191 208-366 448-366 141 0 239 118 267 253 46 222-61 413-213 490-83 42-221 78-338 30-55-23-106-43-129-82-26-14-80-140-57-202 2-41 8-89 22-123zm103 115c1 136 75 191 208 191 130 0 180-50 241-135 38-53 55-111 55-169 0-109-73-236-179-227-143 12-260 151-311 271-9 24-14 47-14 69" id="m"/><path fill="#e81313" d="M24-128c0-158-18-313-5-472 6-74-11-192 62-191 78 1 88 68 113 130 59 143 102 191 174 297 50 73 81 109 92 109 8 0 12-3 13-9 24-163 3-322-12-477-6-63 62-76 101-37 65 64 45 212 54 340 10 141 7 304-15 413-8 15-20 23-37 23-76 0-203-132-244-200-33-54-79-109-116-169l4 4c-9-20-41-55-54-51-14 102-5 244 6 344 3 30-15 69-41 68-9 0-28-1-56-3-44-28-39-45-39-119" id="n"/><path fill="#e81313" d="M109-735c-25-57-110-11-99 37 30 130 91 291 122 410 18 69 44 132 72 190 44 90 75 116 148 73 102-105 149-290 208-441 32-82 48-168 48-261 0-51-15-77-46-77-38 0-59 34-73 100-35 160-89 312-149 454-40 95-58 66-91-37-28-90-54-179-79-263-24-79-42-141-61-185" id="o"/><path fill="#e81313" d="M241-1c89-9 265-42 213 87-19 47-79 30-136 38-61 8-140 8-212 8-58 0-95-35-94-93-2-9 22-38 33-35 70-1 130 2 196-5" id="p"/><path fill="#e81313" d="M39-49c-7-93 9-204-6-289-18-30-12-41 1-77 37-27 19-97 25-162 2-23-27-37-49-40-11-18-14-56 0-71 17-39 273-99 376-109 72-7 163-32 165 45 1 65-62 51-115 66-63 18-176 24-229 55-41 23-20 107-25 176 83-2 166-25 259-33 74-6 91 70 44 97-80 23-228 35-304 57-18 6-27 18-27 35-9 45 6 274-42 299-35 2-92-5-73-49" id="q"/><path fill="#e81313" d="M292-638c-67 2-113 14-176 21-81 9-112-68-58-103 132-46 304-52 470-66l65 5c50 52 43 111-50 111-45 0-75 15-112 18-18 16-19 83-24 152-7 108-21 214-33 322-5 46 36 20 67 20 54 0 81-10 139-16 43 25 50 62 23 110-151 29-311 50-490 79C58 24-8 22 3-44c14-83 161-45 224-90 22-16 24-69 29-107 17-126 33-258 36-397" id="r"/><path fill="#e81313" d="M608-642l-20 77c-36 56-69 94-113 138-49 48-58 40-29 81 33 46 69 89 97 147 44 89 52 141 40 147-3 38-20 49-63 52-68 5-97-106-129-160-40-68-56-162-144-164-53-1-27 78-45 121-7 56-12 123-28 170C157-4 113 24 66-1 46-11 40-39 49-87c19-111 19-139 19-313 0-144 1-187-40-242-27-37-13-94 26-108 103-36 250-59 389-41 63 8 182 85 165 149zm-140 11c-10-39-42-58-96-57-53 12-154 21-179 43-5 9-8 31-8 65 0 151 19 135 127 94 94-36 148-79 156-145" id="s"/><path fill="#e81313" d="M371-533c189 0 256 55 239 237-9 91-67 138-157 205C374-33 301-7 236-7 155-7 13-82 18-160c3-44 62-73 96-38 43 44 152 73 218 29 77-51 166-125 156-169 2-44-67-63-119-62-47 1-108 1-155 3C87-393 13-429 1-531c11-87 101-150 165-187 90-52 160-96 290-87 34 2 118 78 115 115-3 35-23 38-55 45-15 4-26-4-33-24-37-64-116-1-164 12-41 11-154 77-154 113 0 15 14 22 41 22 45 0 127-11 165-11" id="t"/><path fill="#e81313" d="M593-790c58 0 99 54 77 117-5 13-15 16-35 14-70-7-152-3-229 7-31 20-24 81-26 127-4 138-16 277-16 422 0 32 4 70-21 83-26 36-88 7-103-20 1-182 10-346 21-521 2-27 11-81-18-84-73-7-138 11-206 3-20-18-39-18-32-51-3-78 74-91 145-91 129 0 251 6 369-8 25-3 49 2 74 2" id="u"/><path fill="#e81313" d="M21-302C-7-136 9 24 196-12c147-28 263-93 386-142 57-23 26-120-26-120-111 32-240 115-378 126-13 1-22-26-25-45 30-174 59-350 88-524 10-62-86-124-120-61-39 73-49 196-69 277-19 77-22 145-31 199" id="v"/><path fill="#e81313" d="M103-24C79 10-2-14 8-59c42-186 129-353 193-524 23-62 63-135 99-197 39-38 106-10 109 47 27 100 51 209 81 307 8 25 72 24 72 63 0 44-26 46-37 75 12 83 46 156 55 243 7 63-106 47-114 11-13-58-36-170-57-231-3-4-7-8-9-14-69 4-134 40-198 52-53 21-53 108-81 160-4 16-8 29-18 43zm215-551c-16 18-92 195-73 208 46 2 100-12 123-31-5-30-32-162-38-171-2-3-6-5-12-6" id="w"/><g id="a"><use transform="matrix(0.04888888888888889,0,0,0.04888888888888889,0,0)" xlink:href="#l"/><use transform="matrix(0.04888888888888889,0,0,0.04888888888888889,30.99555555555556,0)" xlink:href="#m"/><use transform="matrix(0.04888888888888889,0,0,0.04888888888888889,70.25333333333334,0)" xlink:href="#n"/><use transform="matrix(0.04888888888888889,0,0,0.04888888888888889,101.59111111111113,0)" xlink:href="#o"/><use transform="matrix(0.04888888888888889,0,0,0.04888888888888889,131.6577777777778,0)" xlink:href="#p"/><use transform="matrix(0.04888888888888889,0,0,0.04888888888888889,154.9288888888889,0)" xlink:href="#q"/><use transform="matrix(0.04888888888888889,0,0,0.04888888888888889,181.96444444444447,0)" xlink:href="#r"/><use transform="matrix(0.04888888888888889,0,0,0.04888888888888889,213.0088888888889,0)" xlink:href="#s"/><use transform="matrix(0.04888888888888889,0,0,0.04888888888888889,243.22222222222223,0)" xlink:href="#t"/><use transform="matrix(0.04888888888888889,0,0,0.04888888888888889,274.0711111111111,0)" xlink:href="#u"/><use transform="matrix(0.04888888888888889,0,0,0.04888888888888889,309.22222222222223,0)" xlink:href="#p"/><use transform="matrix(0.04888888888888889,0,0,0.04888888888888889,332.49333333333334,0)" xlink:href="#v"/><use transform="matrix(0.04888888888888889,0,0,0.04888888888888889,362.56,0)" xlink:href="#w"/><use transform="matrix(0.04888888888888889,0,0,0.04888888888888889,391.2577777777778,0)" xlink:href="#t"/><use transform="matrix(0.04888888888888889,0,0,0.04888888888888889,422.1066666666667,0)" xlink:href="#u"/></g><path fill="#333" d="M603-651c0-97-31-172-120-170-102 1-164 75-214 132-81 91-127 171-181 277-30 59-52 189-20 259C104-74 204-5 336-32c36-8 99-21 126-45 137-73 206-137 206-191 0-71-82-87-131-48-77 62-149 135-266 145-97 8-92-125-54-190 41-69 89-162 136-217 46-53 83-81 115-81 30 22 11 105 74 105 41 0 61-32 61-97" id="x"/><path fill="#333" d="M50-194C40-28 200 0 338-54c94-37 183-73 272-114 29-13 41-37 41-62 0-44-32-91-71-89-30 3-148 61-190 76l1-1c-45 16-110 45-165 45 1 0 0-5-3-15l1 1-3-11c27-168 60-333 82-502 10-75-103-138-147-64-8 14-17 32-20 54l1-1c-6 17-8 35-12 54l1-2C92-532 60-361 50-194" id="y"/><path fill="#333" d="M776-292c25-58 39-113 39-189 0-186-105-335-289-347-115-8-264 80-335 176-54 72-128 174-130 306-17 72 19 171 60 209C155-80 284-35 371-30c125 8 185-36 261-79 69-40 112-103 145-184zM507-656c91 0 151 106 151 197 0 107-87 221-167 253-29 11-88 21-133 13l1 1c-87-19-148-53-141-159 8-119 91-193 166-254 44-35 86-51 123-51" id="z"/><path fill="#333" d="M86-37c56 36 139-5 138-73 11-57 4-129 10-196 2-21 24-40 47-41 77 51 122 136 181 204 29 34 55 72 85 105 21 22 42 29 69 20 63 0 82-85 58-138-12-26-30-49-43-73-72-66-125-130-173-217-20-36 37-48 56-72 72-56 143-111 206-178 24-25 23-80-2-105-15-15-23-37-54-32-68 11-105 68-151 105-77 62-151 117-231 177l1-1c-14 9-26 15-40 17-4 1-4-5-4-10 2-64 19-118 27-177-7-58-45-102-106-102-94 0-67 143-86 224 1 117-10 239-18 358-4 66-25 170 30 205" id="A"/><g id="b"><use transform="matrix(0.031111111111111114,0,0,0.031111111111111114,0,0)" xlink:href="#x"/><use transform="matrix(0.031111111111111114,0,0,0.031111111111111114,19.755555555555556,0)" xlink:href="#y"/><use transform="matrix(0.031111111111111114,0,0,0.031111111111111114,38.95111111111112,0)" xlink:href="#z"/><use transform="matrix(0.031111111111111114,0,0,0.031111111111111114,63.93333333333334,0)" xlink:href="#x"/><use transform="matrix(0.031111111111111114,0,0,0.031111111111111114,83.6888888888889,0)" xlink:href="#A"/></g><path fill="#333" d="M615-24c62 1 58-78 47-128 24-171 55-356 55-541 0-64-23-96-70-96-71-1-99 44-94 123-15 114-18 275-42 381-6 28-34 35-58 44-76 27-135 58-212 58-42 0-27-72-25-115 4-84 25-172 38-251l-1 1c12-62 61-162-1-204l2 1c-43-49-114-25-124 36-27 163-69 328-78 509-3 62 15 122 50 146 37 26 87 40 150 40 41 0 198-44 262-67 14 13 28 28 43 46 26 11 45 17 58 17" id="B"/><path fill="#333" d="M87-602c4 38-4 75-5 110-3 126-9 252-9 379 0 59 26 89 77 89 58 0 63-72 63-132 0-35 7-82 12-117 65-30 152-55 206-93 88-62 186-166 161-313-4-21-15-39-29-55l2 2c-23-34-68-58-137-73l1 1c-46-11-95-14-151-15-81-1-238 33-230 104 5 47 47 56 39 113zm257-56c102-1 127 34 86 93-43 62-125 108-204 136-5-100 2-207 8-214 10-10 47-15 110-15zm-110 16l-1 1c0-1 0-1 1-1" id="C"/><path fill="#333" d="M51-5c0 127 187 87 301 83 77-3 150 6 150-80 0-98-192-46-287-46H100C82-52 51-21 51-5" id="D"/><path fill="#333" d="M80-334C68-194 2 14 192-26c62-30 136-63 191-92 174-92 259-210 259-347 0-142-33-193-97-253-69-64-182-82-292-104-16-3-35-3-56-3-90 0-82 55-82 133 0 95-9 196-26 279l1-1c-6 25-8 57-10 80zm133 125c17-153 24-313 53-452 153-5 243 55 220 201l-1-2c-24 127-149 211-272 253zm48-441v3-3zm-8 53c0-1 0-1 1-2" id="E"/><path fill="#333" d="M70-181C36-106 39-36 121-28c46 4 59-41 69-68 14-40 27-86 43-123 28-31 91-34 132-52 22-9 42-12 57-14 23 70 34 146 54 220 8 29 38 43 83 43 40 0 60-20 60-60 0-87-40-149-50-230 28-18 51-84 14-113-11-9-44-19-50-27-27-105-52-214-82-316-19-65-108-61-136-9-73 134-133 295-189 435-24 59-31 107-56 161zm286-369c8 39 19 86 26 125-22 9-48 16-78 17 14-39 32-102 52-142" id="F"/><path fill="#333" d="M450-642c81-9 156-10 231-4 26-13 36-35 36-67 0-81-74-112-168-99-140 19-319-7-450 25-32 17-54 46-55 91v-3c-8 40 21 48 42 67 65 10 127-7 202-2-4 181-23 372-21 564 20 34 93 71 130 26 41-30 19-113 21-180 3-100 12-190 18-284l-1 1c5-43-7-105 15-135" id="G"/><g id="c"><use transform="matrix(0.031111111111111114,0,0,0.031111111111111114,0,0)" xlink:href="#B"/><use transform="matrix(0.031111111111111114,0,0,0.031111111111111114,21.871111111111112,0)" xlink:href="#C"/><use transform="matrix(0.031111111111111114,0,0,0.031111111111111114,39.480000000000004,0)" xlink:href="#D"/><use transform="matrix(0.031111111111111114,0,0,0.031111111111111114,54.32000000000001,0)" xlink:href="#E"/><use transform="matrix(0.031111111111111114,0,0,0.031111111111111114,73.14222222222223,0)" xlink:href="#F"/><use transform="matrix(0.031111111111111114,0,0,0.031111111111111114,91.46666666666667,0)" xlink:href="#G"/><use transform="matrix(0.031111111111111114,0,0,0.031111111111111114,113.83555555555556,0)" xlink:href="#F"/></g><path fill="#333" d="M173-13c102-20 79-163 100-261 0-7 2-19 3-27-8-47 57-27 68-2 40 53 67 131 101 192l-1-1c19 54 59 97 104 92 43-5 70-16 73-58 13-23 7-37-3-71-6-23-15-54-34-88-35-66-68-105-104-161 56-50 105-104 147-170 6-29 17-55 20-85 6-72-103-151-170-159l2 1c-139-21-303 2-392 48-38 20-46 85-18 123 36 48 34 126 35 220 2 188-7 191-22 334-6 57 41 80 92 72zm83-631c46-6 199-69 222 5-8 54-52 92-132 119-94 31-95 61-95-72 0-28 2-45 5-52zm67 321l-3-1c1 1 2 1 3 1" id="H"/><path fill="#333" d="M562-231c-119 0-201 32-308 40-14 1-42-3-40-14 7-43 5-108 16-155 15-24 58-17 92-28 55-18 122-10 191-10 29 0 63-18 62-50l-1 1c9-54-30-90-85-89l2 1c-79-20-172-1-247 10 3-27 1-57 6-86 80-35 193-36 303-41 17-1 37-7 58-16 38-58-8-126-51-147l1 1c-50-22-116-3-173 4-55 6-120 24-173 38l1-1c-58 17-141 13-134 97 6 67 3 142 3 213 0 107-34 195-34 299 0 91 55 147 155 140 120-8 214-45 346-45 28 0 55-3 82-5h-6c53-8 92-74 55-130-9-16-23-28-41-35-26 5-52 8-80 8zM242-525v-1 1" id="I"/><path fill="#333" d="M57-191C48-107 192-27 280-27c97 0 254-99 310-169 39-50 65-83 62-166-5-159-71-204-245-204-43 0-128 16-175 9 33-54 156-102 224-125 50-17 39 63 85 49 7-1 26-9 26-8 27 1 48-28 46-55-5-57-86-138-163-130-107 11-177 44-249 89-64 40-151 103-160 192 11 108 88 147 219 147 67 0 156-12 208 7 20 7 30 17 30 30 0 34-38 77-114 130 1-1 0-1 1-1-43 46-146 46-193 1-15-15-43-32-65-30-41 4-67 29-70 70" id="J"/><g id="d"><use transform="matrix(0.031111111111111114,0,0,0.031111111111111114,0,0)" xlink:href="#H"/><use transform="matrix(0.031111111111111114,0,0,0.031111111111111114,19.25777777777778,0)" xlink:href="#I"/><use transform="matrix(0.031111111111111114,0,0,0.031111111111111114,40.00888888888889,0)" xlink:href="#J"/><use transform="matrix(0.031111111111111114,0,0,0.031111111111111114,59.67111111111112,0)" xlink:href="#I"/><use transform="matrix(0.031111111111111114,0,0,0.031111111111111114,80.42222222222223,0)" xlink:href="#G"/></g><path fill="#333" d="M629-24c59-2 63-70 49-127 24-178 57-368 57-559 0-65-24-97-72-97-73 0-104 46-96 125-15 110-16 275-41 389-4 15-11 26-22 31l1-1c-82 36-169 76-259 76-20 0-30-14-30-43 1-122 26-238 45-343 11-60 55-153-4-195l2 1c-40-47-109-37-123 31-33 162-66 339-84 524C31 4 269 4 431-58c31-12 67-21 97-31 15 15 29 29 42 47 25 12 44 18 59 18" id="K"/><path fill="#333" d="M87-602c4 38-4 75-5 110-3 126-9 252-9 379 0 59 26 89 77 89 58 0 63-72 63-132 0-35 7-82 12-117 65-30 152-55 206-93 88-62 186-166 161-313-4-21-15-39-29-55l2 2c-23-34-68-58-137-73l1 1c-46-11-95-14-151-15-81-1-238 33-230 104 5 47 47 56 39 113zm257-56c102-1 127 34 86 93-43 62-125 108-204 136-5-100 2-207 8-214 10-10 47-15 110-15zm-110 16l-1 1c0-1 0-1 1-1" id="L"/><path fill="#333" d="M173-760c-47-53-124-8-124 56 35 130 84 269 116 396 17 67 41 127 68 184 43 96 91 124 167 76 102-105 142-279 200-428 31-80 47-165 47-255 0-62-20-93-61-93-46 0-73 38-88 112-32 153-82 289-137 426-12 30-22 44-23 44-63-154-99-377-167-518 1 1 2 1 2 0" id="M"/><path fill="#333" d="M42-70c0 87 115 70 183 54l-1 1c168-29 298-46 412-66 37-61 31-107-28-144-59 12-120 13-178 22 6-108 31-217 31-327 0-55 4-92 13-111 33-5 63-9 97-17 108 2 116-84 54-143-115-14-235 13-335 17-9 1-17 2-25 5l1-1c-26 5-56 8-80 15l1-1c-64 12-112 20-118 81-8 89 119 84 199 63-6 0 1-1 3-1 14-2 24 0 41-3 2 126-16 240-31 354-4 28-1 78-21 91-30 19-88 18-126 30l1-1c-53 5-93 24-93 82" id="N"/><g id="e"><use transform="matrix(0.031111111111111114,0,0,0.031111111111111114,0,0)" xlink:href="#K"/><use transform="matrix(0.031111111111111114,0,0,0.031111111111111114,21.964444444444446,0)" xlink:href="#L"/><use transform="matrix(0.031111111111111114,0,0,0.031111111111111114,39.57333333333334,0)" xlink:href="#D"/><use transform="matrix(0.031111111111111114,0,0,0.031111111111111114,54.41333333333334,0)" xlink:href="#M"/><use transform="matrix(0.031111111111111114,0,0,0.031111111111111114,73.57777777777778,0)" xlink:href="#F"/><use transform="matrix(0.031111111111111114,0,0,0.031111111111111114,91.90222222222224,0)" xlink:href="#y"/><use transform="matrix(0.031111111111111114,0,0,0.031111111111111114,111.0977777777778,0)" xlink:href="#N"/><use transform="matrix(0.031111111111111114,0,0,0.031111111111111114,130.91555555555556,0)" xlink:href="#E"/></g><path fill="#333" d="M221-124c-5 68 57 122 114 88 56-69 74-227 103-315 43-131 137-218 258-350 11-10 13-24 13-44 0-51-23-76-70-76-24 0-64 28-115 76-59 54-122 144-170 207-38-22-100-93-118-140l2 2c-5-9-14-22-18-32l2 3c-24-42-35-120-100-120-46 0-72 39-72 84 30 138 114 263 217 331 10 7 14 13 14 18" id="O"/><g id="f"><use transform="matrix(0.031111111111111114,0,0,0.031111111111111114,0,0)" xlink:href="#K"/><use transform="matrix(0.031111111111111114,0,0,0.031111111111111114,21.964444444444446,0)" xlink:href="#L"/><use transform="matrix(0.031111111111111114,0,0,0.031111111111111114,39.57333333333334,0)" xlink:href="#D"/><use transform="matrix(0.031111111111111114,0,0,0.031111111111111114,54.41333333333334,0)" xlink:href="#H"/><use transform="matrix(0.031111111111111114,0,0,0.031111111111111114,73.67111111111112,0)" xlink:href="#I"/><use transform="matrix(0.031111111111111114,0,0,0.031111111111111114,94.42222222222223,0)" xlink:href="#F"/><use transform="matrix(0.031111111111111114,0,0,0.031111111111111114,112.74666666666667,0)" xlink:href="#E"/><use transform="matrix(0.031111111111111114,0,0,0.031111111111111114,131.5688888888889,0)" xlink:href="#O"/></g><path fill="#333" d="M247-491c4-58-16-131 34-141 82-16 176-39 255-55 40-8 54-21 55-68 2-89-94-75-175-63-118 17-292 45-359 106-23 21-20 70-5 98 12 11 43 7 43 25 0 45 0 79-2 117-13 22-33 46-32 81 30 86 13 210 13 321 0 45 55 52 97 50 59-25 38-242 50-304 5-22 30-20 56-26 78-17 169-21 238-43 27-8 39-31 39-61 0-46-28-69-84-69-71 0-156 16-210 32h-13" id="P"/><g id="g"><use transform="matrix(0.031111111111111114,0,0,0.031111111111111114,0,0)" xlink:href="#B"/><use transform="matrix(0.031111111111111114,0,0,0.031111111111111114,21.871111111111112,0)" xlink:href="#C"/><use transform="matrix(0.031111111111111114,0,0,0.031111111111111114,39.480000000000004,0)" xlink:href="#D"/><use transform="matrix(0.031111111111111114,0,0,0.031111111111111114,54.32000000000001,0)" xlink:href="#P"/><use transform="matrix(0.031111111111111114,0,0,0.031111111111111114,71.61777777777779,0)" xlink:href="#N"/><use transform="matrix(0.031111111111111114,0,0,0.031111111111111114,91.43555555555557,0)" xlink:href="#H"/><use transform="matrix(0.031111111111111114,0,0,0.031111111111111114,110.69333333333334,0)" xlink:href="#J"/><use transform="matrix(0.031111111111111114,0,0,0.031111111111111114,130.35555555555555,0)" xlink:href="#G"/></g><path fill="#333" d="M801-816c-117 0-37 170-64 263l1-1c-15 67-25 131-43 194-17 60-32 90-42 90-80-84-72-255-129-356-25-43-100-46-123 6-3 9-10 16-13 25l1-1c-8 20-18 38-27 56h3c-37 81-75 146-113 224-14 27-22 40-25 40-20-121-1-292-18-429-7-54-40-79-81-79-96 0-69 186-67 280 4 147 38 414 86 451 74 56 110 33 172-59 29-43 113-203 127-220 48 94 116 279 229 289 100-11 151-212 184-307 29-83 39-155 39-263 0-135-32-203-97-203" id="Q"/><path fill="#333" d="M216-409c9 8 16 19 19 30-1 9 8 9 10 13 37 63 77 111 116 172 37 57 163 169 227 172 23 0 40-11 52-32 33-170 13-434 6-619-3-83-39-143-107-149-45-4-69 31-66 79 10 146 31 283 13 439-51-61-104-153-152-217-31-42-51-96-76-155l1 1c-28-66-40-134-124-136-97-1-69 150-80 250-17 150 12 295 5 444-2 50 15 62 51 88 19 2 42 3 59 3 35 2 66-46 57-86l1 1c-10-94-14-194-12-298zm39 2c4 1 2 2 0 3v-3zm229 115c0-2 0-3 1-4-1 1-1 3-1 4" id="R"/><g id="h"><use transform="matrix(0.031111111111111114,0,0,0.031111111111111114,0,0)" xlink:href="#E"/><use transform="matrix(0.031111111111111114,0,0,0.031111111111111114,18.822222222222223,0)" xlink:href="#z"/><use transform="matrix(0.031111111111111114,0,0,0.031111111111111114,43.80444444444444,0)" xlink:href="#Q"/><use transform="matrix(0.031111111111111114,0,0,0.031111111111111114,70.84,0)" xlink:href="#R"/><use transform="matrix(0.031111111111111114,0,0,0.031111111111111114,90.81333333333333,0)" xlink:href="#D"/><use transform="matrix(0.031111111111111114,0,0,0.031111111111111114,105.65333333333334,0)" xlink:href="#E"/><use transform="matrix(0.031111111111111114,0,0,0.031111111111111114,124.47555555555556,0)" xlink:href="#F"/><use transform="matrix(0.031111111111111114,0,0,0.031111111111111114,142.8,0)" xlink:href="#G"/><use transform="matrix(0.031111111111111114,0,0,0.031111111111111114,165.1688888888889,0)" xlink:href="#F"/></g><g id="i"><use transform="matrix(0.031111111111111114,0,0,0.031111111111111114,0,0)" xlink:href="#E"/><use transform="matrix(0.031111111111111114,0,0,0.031111111111111114,18.822222222222223,0)" xlink:href="#z"/><use transform="matrix(0.031111111111111114,0,0,0.031111111111111114,43.80444444444444,0)" xlink:href="#Q"/><use transform="matrix(0.031111111111111114,0,0,0.031111111111111114,70.84,0)" xlink:href="#R"/><use transform="matrix(0.031111111111111114,0,0,0.031111111111111114,90.81333333333333,0)" xlink:href="#D"/><use transform="matrix(0.031111111111111114,0,0,0.031111111111111114,105.65333333333334,0)" xlink:href="#M"/><use transform="matrix(0.031111111111111114,0,0,0.031111111111111114,124.81777777777778,0)" xlink:href="#F"/><use transform="matrix(0.031111111111111114,0,0,0.031111111111111114,143.14222222222222,0)" xlink:href="#y"/><use transform="matrix(0.031111111111111114,0,0,0.031111111111111114,162.33777777777777,0)" xlink:href="#N"/><use transform="matrix(0.031111111111111114,0,0,0.031111111111111114,182.15555555555557,0)" xlink:href="#E"/></g><g id="j"><use transform="matrix(0.031111111111111114,0,0,0.031111111111111114,0,0)" xlink:href="#E"/><use transform="matrix(0.031111111111111114,0,0,0.031111111111111114,18.822222222222223,0)" xlink:href="#z"/><use transform="matrix(0.031111111111111114,0,0,0.031111111111111114,43.80444444444444,0)" xlink:href="#Q"/><use transform="matrix(0.031111111111111114,0,0,0.031111111111111114,70.84,0)" xlink:href="#R"/><use transform="matrix(0.031111111111111114,0,0,0.031111111111111114,90.81333333333333,0)" xlink:href="#D"/><use transform="matrix(0.031111111111111114,0,0,0.031111111111111114,105.65333333333334,0)" xlink:href="#H"/><use transform="matrix(0.031111111111111114,0,0,0.031111111111111114,124.91111111111111,0)" xlink:href="#I"/><use transform="matrix(0.031111111111111114,0,0,0.031111111111111114,145.66222222222223,0)" xlink:href="#F"/><use transform="matrix(0.031111111111111114,0,0,0.031111111111111114,163.98666666666668,0)" xlink:href="#E"/><use transform="matrix(0.031111111111111114,0,0,0.031111111111111114,182.8088888888889,0)" xlink:href="#O"/></g><g id="k"><use transform="matrix(0.031111111111111114,0,0,0.031111111111111114,0,0)" xlink:href="#E"/><use transform="matrix(0.031111111111111114,0,0,0.031111111111111114,18.822222222222223,0)" xlink:href="#z"/><use transform="matrix(0.031111111111111114,0,0,0.031111111111111114,43.80444444444444,0)" xlink:href="#Q"/><use transform="matrix(0.031111111111111114,0,0,0.031111111111111114,70.84,0)" xlink:href="#R"/><use transform="matrix(0.031111111111111114,0,0,0.031111111111111114,90.81333333333333,0)" xlink:href="#D"/><use transform="matrix(0.031111111111111114,0,0,0.031111111111111114,105.65333333333334,0)" xlink:href="#y"/><use transform="matrix(0.031111111111111114,0,0,0.031111111111111114,124.8488888888889,0)" xlink:href="#F"/><use transform="matrix(0.031111111111111114,0,0,0.031111111111111114,143.17333333333335,0)" xlink:href="#J"/><use transform="matrix(0.031111111111111114,0,0,0.031111111111111114,162.83555555555557,0)" xlink:href="#G"/></g></defs></g></svg>