<svg xmlns="http://www.w3.org/2000/svg" xmlns:xlink="http://www.w3.org/1999/xlink" xmlns:lucid="lucid" width="1217.88" height="607.07"><g transform="translate(-266.91630018678165 -279.35479379049866)" lucid:page-tab-id="0_0"><path d="M787.33 882.43a6 6 0 0 1-6-6V289.35a6 6 0 0 1 6-6h108a6 6 0 0 1 6 6v587.08a6 6 0 0 1-6 6z" stroke="#e81313" stroke-width="8" fill="#f8ad96"/><use xlink:href="#a" transform="matrix(6.123233995736766e-17,-1,1,6.123233995736766e-17,793.3297580264843,870.4276037241516) translate(125.95777777777775 69.64000000000001)"/><path d="M563.85 321.32h131.13" stroke="#1071e5" stroke-width="8" fill="none"/><path d="M563.95 325.3h-4.1v-7.95h4.1z" stroke="#1071e5" stroke-width=".05" fill="#1071e5"/><path d="M713.24 321.32l-14.26 4.64v-9.27z" stroke="#1071e5" stroke-width="8" fill="#1071e5"/><path d="M565.68 502.5l123.86-.1M565.8 502.5h-4.12" stroke="#1071e5" stroke-width="8" fill="none"/><path d="M707.8 502.4l-14.26 4.63v-9.27z" stroke="#1071e5" stroke-width="8" fill="#1071e5"/><path d="M959.96 730.92a6 6 0 0 1 5.98-6.02l96.18-.3a6 6 0 0 0 5.98-6.03l-.06-17.08a2.3 2.3 0 0 1 4-1.57l44.5 49.1a6.67 6.67 0 0 1 .02 8.93l-44.16 49.38a2.3 2.3 0 0 1-4.02-1.52l-.06-17.1a6 6 0 0 0-6.02-5.97l-96.17.3a6 6 0 0 1-6.02-5.97z" stroke="#1071e5" stroke-width="8" fill="#58c2bf"/><use xlink:href="#b" transform="matrix(0.9999948636161683,-0.0032051117423592345,0.0032051117423592345,0.9999948636161683,971.888935611954,707.7951009955483) translate(11.108888888888885 57.88250000000001)"/><use xlink:href="#c" transform="matrix(0.9999948636161683,-0.0032051117423592345,0.0032051117423592345,0.9999948636161683,971.888935611954,707.7951009955483) translate(100.67333333333333 57.88250000000001)"/><path d="M444.43 293.1a6 6 0 0 1 6-6h103.42a6 6 0 0 1 6 6v56.46a6 6 0 0 1-6 6H450.43a6 6 0 0 1-6-6z" fill="none"/><use xlink:href="#d" transform="matrix(1,0,0,1,456.4331285002443,299.08806557136865) translate(0 37.57333333333334)"/><path d="M266.92 462.64a6 6 0 0 1 6-6h265.4a6 6 0 0 1 6 6v78.67a6 6 0 0 1-6 6h-265.4a6 6 0 0 1-6-6z" fill="none"/><use xlink:href="#e" transform="matrix(1,0,0,1,278.91630018678165,468.64018205815853) translate(0 48.57333333333334)"/><path d="M268.82 720.47a6 6 0 0 1 6-6h279.03a6 6 0 0 1 6 6V787a6 6 0 0 1-6 6H274.82a6 6 0 0 1-6-6z" fill="none"/><use xlink:href="#f" transform="matrix(1,0,0,1,280.8168307976767,726.468415534091) translate(0 42.57333333333334)"/><path d="M562.03 401.22l132.95-2.05" stroke="#1071e5" stroke-width="8" fill="none"/><path d="M562.2 405.2l-4.17.06v-7.95l4.04-.05z" stroke="#1071e5" stroke-width=".05" fill="#1071e5"/><path d="M713.25 398.9l-14.2 4.85-.14-9.27z" stroke="#1071e5" stroke-width="8" fill="#1071e5"/><path d="M442.62 373.05a6 6 0 0 1 6-6h103.4a6 6 0 0 1 6 6v56.47a6 6 0 0 1-6 6h-103.4a6 6 0 0 1-6-6z" fill="none"/><use xlink:href="#g" transform="matrix(1,0,0,1,454.61629770256775,379.05090126248035) translate(0 37.57333333333334)"/><path d="M592.9 583.92l123.85-.1" stroke="#1071e5" stroke-width="8" fill="none"/><path d="M574.63 583.94l14.26-4.65v9.26z" stroke="#1071e5" stroke-width="8" fill="#1071e5"/><path d="M716.64 583.83h4.1" stroke="#1071e5" stroke-width="8" fill="none"/><path d="M266.92 544.1a6 6 0 0 1 6-6h265.4a6 6 0 0 1 6 6v66.67a6 6 0 0 1-6 6h-265.4a6 6 0 0 1-6-6z" fill="none"/><use xlink:href="#h" transform="matrix(1,0,0,1,278.91630018678165,550.0954990476703) translate(0 42.57333333333334)"/><path d="M963.85 502.7h121.75M963.95 502.7h-4.1" stroke="#1071e5" stroke-width="8" fill="none"/><path d="M1103.86 502.7l-14.26 4.63v-9.27z" stroke="#1071e5" stroke-width="8" fill="#1071e5"/><path d="M1154.93 470.85a6 6 0 0 1 6-6h298.02a6 6 0 0 1 6 6v78.67a6 6 0 0 1-6 6h-298.02a6 6 0 0 1-6-6z" fill="none"/><use xlink:href="#i" transform="matrix(1,0,0,1,1166.9334043960764,476.8464101326952) translate(0 48.57333333333334)"/><path d="M991.06 584.15h125.75" stroke="#1071e5" stroke-width="8" fill="none"/><path d="M972.8 584.15l14.26-4.63v9.27z" stroke="#1071e5" stroke-width="8" fill="#1071e5"/><path d="M1116.7 584.15h4.1" stroke="#1071e5" stroke-width="8" fill="none"/><path d="M1156.8 554.6a6 6 0 0 1 6-6h305.54a6 6 0 0 1 6 6v66.66a6 6 0 0 1-6 6H1162.8a6 6 0 0 1-6-6z" fill="none"/><use xlink:href="#j" transform="matrix(1,0,0,1,1168.8000710627434,560.5888202535334) translate(0 42.57333333333334)"/><path d="M573.92 700.45a6 6 0 0 1 5.98-6.02l41.74-.13a6 6 0 0 0 5.98-6.02l-.15-47.55a2.3 2.3 0 0 1 4-1.55L731 749.04a6.67 6.67 0 0 1 .02 8.92l-98.8 110.5a2.3 2.3 0 0 1-4.03-1.54l-.16-47.55a6 6 0 0 0-6.02-5.98l-41.74.13a6 6 0 0 1-6.02-5.98z" stroke="#1071e5" stroke-width="8" fill="#58c2bf"/><use xlink:href="#k" transform="matrix(0.9999948636161683,-0.0032051117423592345,0.0032051117423592345,0.9999948636161683,585.7494083734332,646.8645020939067) translate(18.34777777777778 102.72625000000001)"/><use xlink:href="#l" transform="matrix(0.9999948636161683,-0.0032051117423592345,0.0032051117423592345,0.9999948636161683,585.7494083734332,646.8645020939067) translate(26.79666666666666 137.82847222222222)"/><use xlink:href="#m" transform="matrix(0.9999948636161683,-0.0032051117423592345,0.0032051117423592345,0.9999948636161683,585.7494083734332,646.8645020939067) translate(49.72555555555555 137.82847222222222)"/><use xlink:href="#n" transform="matrix(0.9999948636161683,-0.0032051117423592345,0.0032051117423592345,0.9999948636161683,585.7494083734332,646.8645020939067) translate(67.98555555555555 137.82847222222222)"/><path d="M1156 720.47a6 6 0 0 1 6-6h316.8a6 6 0 0 1 6 6V787a6 6 0 0 1-6 6H1162a6 6 0 0 1-6-6z" fill="none"/><g><use xlink:href="#o" transform="matrix(1,0,0,1,1167.9938771575557,726.4684155340909) translate(0 42.57333333333334)"/></g><defs><path fill="#e81313" d="M590-683c0-95-64-132-148-103-62 21-113 58-161 92-97 69-165 165-223 275C-45-222 51 11 277-12c154-16 257-81 343-160 63-58 100-126 109-243 12-155-158-93-246-67-61 18-178 69-168 115-2 30 28 68 54 64 69-10 133-52 201-67 9-2 20 9 20 17 0 11-18 38-57 79-85 91-188 136-306 136-55 0-99-68-99-127 0-30 16-69 37-123 25-64 237-288 318-281 25-8 66 40 79 44 19 0 28-19 28-58" id="p"/><path fill="#e81313" d="M330-158c82-22 193-18 286-31 38 11 58 81 24 113-25 24-71 25-116 25-135 0-238 34-358 47C61 7 4-52 15-159c12-113 37-213 32-340-2-59 2-121-2-178-2-44 35-62 81-61 104-31 222-52 345-64 68-7 103 34 111 94 2 12-3 22-9 31-33 14-62 15-103 16-100 2-196 10-270 40h-8c-18 23-11 79-15 106-1 13 5 22 16 25 82-10 176-25 264-12 44 7 78 26 71 72-7 49-76 30-125 30-78 0-138 22-210 29-24 1-35 28-36 52-2 41-10 83-8 126-19 84 122 51 181 35" id="q"/><path fill="#e81313" d="M103-24C79 10-2-14 8-59c42-186 129-353 193-524 23-62 63-135 99-197 39-38 106-10 109 47 27 100 51 209 81 307 8 25 72 24 72 63 0 44-26 46-37 75 12 83 46 156 55 243 7 63-106 47-114 11-13-58-36-170-57-231-3-4-7-8-9-14-69 4-134 40-198 52-53 21-53 108-81 160-4 16-8 29-18 43zm215-551c-16 18-92 195-73 208 46 2 100-12 123-31-5-30-32-162-38-171-2-3-6-5-12-6" id="r"/><path fill="#e81313" d="M608-642l-20 77c-36 56-69 94-113 138-49 48-58 40-29 81 33 46 69 89 97 147 44 89 52 141 40 147-3 38-20 49-63 52-68 5-97-106-129-160-40-68-56-162-144-164-53-1-27 78-45 121-7 56-12 123-28 170C157-4 113 24 66-1 46-11 40-39 49-87c19-111 19-139 19-313 0-144 1-187-40-242-27-37-13-94 26-108 103-36 250-59 389-41 63 8 182 85 165 149zm-140 11c-10-39-42-58-96-57-53 12-154 21-179 43-5 9-8 31-8 65 0 151 19 135 127 94 94-36 148-79 156-145" id="s"/><path fill="#e81313" d="M68-174c-8-157-1-333-1-488 0-23-21-28-12-60 24-87 141-85 256-77 161 12 317 42 251 258-5 17-40 45-44 60 15 30 85 80 98 123 62 108 25 192-76 258C455-45 341-9 207-4 145-2 19-30 19-85c0-36 51-41 49-89zm137-510c-18 6-26 137-16 192 30 22 66 2 112-6 70-13 158-95 159-132 17-68-169-82-255-54zm-15 330c-15 57-2 155 5 215 6 4 6 12 18 11 101-5 211-32 267-82 52-46 58-91 12-140s-73-73-81-73c-39 14-121 48-173 54-15 2-34 14-48 15" id="t"/><path fill="#e81313" d="M44-443c79-191 208-366 448-366 141 0 239 118 267 253 46 222-61 413-213 490-83 42-221 78-338 30-55-23-106-43-129-82-26-14-80-140-57-202 2-41 8-89 22-123zm103 115c1 136 75 191 208 191 130 0 180-50 241-135 38-53 55-111 55-169 0-109-73-236-179-227-143 12-260 151-311 271-9 24-14 47-14 69" id="u"/><path fill="#e81313" d="M635-31c28-53 7-115-31-143-7-19-67-63-88-82-39-36-80-78-117-115 1-16 41-65 118-148l-10 11c30-36 53-67 85-95 54-48 78-89 78-117s-20-70-52-70c-36 0-116 78-245 230-22 26-38 59-67 71-30 12-85-104-102-151-13-36-72-158-75-157-34-47-96-35-89 35 8 88 69 162 101 236 14 20 74 122 77 140-20 61-139 209-182 265-18 23-24 44-24 60C11-36 45 1 69 0c45-2 96-97 124-134 67-89 109-132 124-131 48 2 103 85 141 115 20 16 39 33 56 52 49 58 88 82 121 67" id="v"/><path fill="#e81313" d="M241-1c89-9 265-42 213 87-19 47-79 30-136 38-61 8-140 8-212 8-58 0-95-35-94-93-2-9 22-38 33-35 70-1 130 2 196-5" id="w"/><path fill="#e81313" d="M489-785c107 0 154 111 116 214-29 79-213 255-300 345-26 27-38 39-16 63 95 2 204-5 287 7 22 4 49 51 49 77 0 63-95 31-141 31H320C244-52 124 2 73 14 50 19-1-26 3-53c6-51 111-140 150-182 94-98 182-189 275-285 55-57 80-102 80-129 1-31-28-24-56-21-120 11-265 81-296 145-13 26-15 67-56 65s-51-21-51-66c0-144 158-200 287-235 61-16 112-24 153-24" id="x"/><path fill="#e81313" d="M49-77C44-40 70-4 106-4c52 0 58-115 69-176 33-185 88-339 106-531 5-55-37-120-88-84-58 41-108 94-156 139-9 8-27 43-27 58-1 28 35 54 60 54 15-1 48-23 43 15" id="y"/><g id="a"><use transform="matrix(0.04888888888888889,0,0,0.04888888888888889,0,0)" xlink:href="#p"/><use transform="matrix(0.04888888888888889,0,0,0.04888888888888889,37.15555555555556,0)" xlink:href="#q"/><use transform="matrix(0.04888888888888889,0,0,0.04888888888888889,69.71555555555557,0)" xlink:href="#r"/><use transform="matrix(0.04888888888888889,0,0,0.04888888888888889,98.41333333333336,0)" xlink:href="#s"/><use transform="matrix(0.04888888888888889,0,0,0.04888888888888889,128.6266666666667,0)" xlink:href="#t"/><use transform="matrix(0.04888888888888889,0,0,0.04888888888888889,160.06222222222226,0)" xlink:href="#u"/><use transform="matrix(0.04888888888888889,0,0,0.04888888888888889,199.32000000000005,0)" xlink:href="#v"/><use transform="matrix(0.04888888888888889,0,0,0.04888888888888889,232.36888888888893,0)" xlink:href="#w"/><use transform="matrix(0.04888888888888889,0,0,0.04888888888888889,255.64000000000007,0)" xlink:href="#x"/><use transform="matrix(0.04888888888888889,0,0,0.04888888888888889,286.9777777777778,0)" xlink:href="#w"/><use transform="matrix(0.04888888888888889,0,0,0.04888888888888889,310.2488888888889,0)" xlink:href="#y"/></g><path fill="#fff" d="M722-498c18-70 6-160 6-241 0-38 16-57 49-57 55 0 82 64 82 193 1 204-63 347-126 491-54 125-124 110-196 9-30-42-54-91-82-146-27-53-43-79-49-79-8-17-88 136-114 182C269-106 193 9 170-1 96-15 86-47 66-129 33-267 17-480 18-657c0-70 18-105 54-105 39 0 66 36 68 87 4 137-4 277 12 406 12 100 67-12 84-47 47-96 102-197 139-285 18-41 78-38 96-4 52 97 51 251 110 344 50 78 71 31 104-70 17-53 22-108 37-167" id="z"/><path fill="#fff" d="M292-638c-67 2-113 14-176 21-81 9-112-68-58-103 132-46 304-52 470-66l65 5c50 52 43 111-50 111-45 0-75 15-112 18-18 16-19 83-24 152-7 108-21 214-33 322-5 46 36 20 67 20 54 0 81-10 139-16 43 25 50 62 23 110-151 29-311 50-490 79C58 24-8 22 3-44c14-83 161-45 224-90 22-16 24-69 29-107 17-126 33-258 36-397" id="A"/><path fill="#fff" d="M19-91c0-222 71-428 58-668-3-62 121-44 170-33 118 27 229 50 293 128 44 53 63 97 63 217 0 165-189 328-383 400-36 13-62 45-108 45-66 0-93-23-93-89zm185-582c-30 151-43 322-58 489 5 39 27 28 60 14 129-54 276-147 276-304 0-155-106-203-278-199" id="B"/><path fill="#fff" d="M593-790c58 0 99 54 77 117-5 13-15 16-35 14-70-7-152-3-229 7-31 20-24 81-26 127-4 138-16 277-16 422 0 32 4 70-21 83-26 36-88 7-103-20 1-182 10-346 21-521 2-27 11-81-18-84-73-7-138 11-206 3-20-18-39-18-32-51-3-78 74-91 145-91 129 0 251 6 369-8 25-3 49 2 74 2" id="C"/><path fill="#fff" d="M107-780c100 15 51 176 51 272 0 29 23 25 56 24 33-11 175 4 171-42 9-67 4-153 14-224 12-14 39-57 70-50 51 0 74 34 69 103L490-47c-6 28-25 57-57 56-118-5-54-182-54-299 0-34 3-75-15-85-65 6-127 12-191 19-52 29-23 162-29 239C135-7 87 19 22-30 10-48 7-67 13-88c-16-100 8-215 8-322 0-127-9-364 86-370" id="D"/><g id="b"><use transform="matrix(0.024444444444444446,0,0,0.024444444444444446,0,0)" xlink:href="#z"/><use transform="matrix(0.024444444444444446,0,0,0.024444444444444446,21.21777777777778,0)" xlink:href="#A"/><use transform="matrix(0.024444444444444446,0,0,0.024444444444444446,36.74,0)" xlink:href="#B"/><use transform="matrix(0.024444444444444446,0,0,0.024444444444444446,51.504444444444445,0)" xlink:href="#C"/><use transform="matrix(0.024444444444444446,0,0,0.024444444444444446,69.08,0)" xlink:href="#D"/></g><use transform="matrix(0.024444444444444446,0,0,0.024444444444444446,0,0)" xlink:href="#z" id="c"/><path fill="#333" d="M603-651c0-97-31-172-120-170-102 1-164 75-214 132-81 91-127 171-181 277-30 59-52 189-20 259C104-74 204-5 336-32c36-8 99-21 126-45 137-73 206-137 206-191 0-71-82-87-131-48-77 62-149 135-266 145-97 8-92-125-54-190 41-69 89-162 136-217 46-53 83-81 115-81 30 22 11 105 74 105 41 0 61-32 61-97" id="E"/><path fill="#333" d="M50-194C40-28 200 0 338-54c94-37 183-73 272-114 29-13 41-37 41-62 0-44-32-91-71-89-30 3-148 61-190 76l1-1c-45 16-110 45-165 45 1 0 0-5-3-15l1 1-3-11c27-168 60-333 82-502 10-75-103-138-147-64-8 14-17 32-20 54l1-1c-6 17-8 35-12 54l1-2C92-532 60-361 50-194" id="F"/><path fill="#333" d="M86-37c56 36 139-5 138-73 11-57 4-129 10-196 2-21 24-40 47-41 77 51 122 136 181 204 29 34 55 72 85 105 21 22 42 29 69 20 63 0 82-85 58-138-12-26-30-49-43-73-72-66-125-130-173-217-20-36 37-48 56-72 72-56 143-111 206-178 24-25 23-80-2-105-15-15-23-37-54-32-68 11-105 68-151 105-77 62-151 117-231 177l1-1c-14 9-26 15-40 17-4 1-4-5-4-10 2-64 19-118 27-177-7-58-45-102-106-102-94 0-67 143-86 224 1 117-10 239-18 358-4 66-25 170 30 205" id="G"/><g id="d"><use transform="matrix(0.031111111111111114,0,0,0.031111111111111114,0,0)" xlink:href="#E"/><use transform="matrix(0.031111111111111114,0,0,0.031111111111111114,19.755555555555556,0)" xlink:href="#F"/><use transform="matrix(0.031111111111111114,0,0,0.031111111111111114,38.95111111111112,0)" xlink:href="#G"/></g><path fill="#333" d="M615-24c62 1 58-78 47-128 24-171 55-356 55-541 0-64-23-96-70-96-71-1-99 44-94 123-15 114-18 275-42 381-6 28-34 35-58 44-76 27-135 58-212 58-42 0-27-72-25-115 4-84 25-172 38-251l-1 1c12-62 61-162-1-204l2 1c-43-49-114-25-124 36-27 163-69 328-78 509-3 62 15 122 50 146 37 26 87 40 150 40 41 0 198-44 262-67 14 13 28 28 43 46 26 11 45 17 58 17" id="H"/><path fill="#333" d="M87-602c4 38-4 75-5 110-3 126-9 252-9 379 0 59 26 89 77 89 58 0 63-72 63-132 0-35 7-82 12-117 65-30 152-55 206-93 88-62 186-166 161-313-4-21-15-39-29-55l2 2c-23-34-68-58-137-73l1 1c-46-11-95-14-151-15-81-1-238 33-230 104 5 47 47 56 39 113zm257-56c102-1 127 34 86 93-43 62-125 108-204 136-5-100 2-207 8-214 10-10 47-15 110-15zm-110 16l-1 1c0-1 0-1 1-1" id="I"/><path fill="#333" d="M57-191C48-107 192-27 280-27c97 0 254-99 310-169 39-50 65-83 62-166-5-159-71-204-245-204-43 0-128 16-175 9 33-54 156-102 224-125 50-17 39 63 85 49 7-1 26-9 26-8 27 1 48-28 46-55-5-57-86-138-163-130-107 11-177 44-249 89-64 40-151 103-160 192 11 108 88 147 219 147 67 0 156-12 208 7 20 7 30 17 30 30 0 34-38 77-114 130 1-1 0-1 1-1-43 46-146 46-193 1-15-15-43-32-65-30-41 4-67 29-70 70" id="J"/><path fill="#333" d="M450-642c81-9 156-10 231-4 26-13 36-35 36-67 0-81-74-112-168-99-140 19-319-7-450 25-32 17-54 46-55 91v-3c-8 40 21 48 42 67 65 10 127-7 202-2-4 181-23 372-21 564 20 34 93 71 130 26 41-30 19-113 21-180 3-100 12-190 18-284l-1 1c5-43-7-105 15-135" id="K"/><path fill="#333" d="M173-13c102-20 79-163 100-261 0-7 2-19 3-27-8-47 57-27 68-2 40 53 67 131 101 192l-1-1c19 54 59 97 104 92 43-5 70-16 73-58 13-23 7-37-3-71-6-23-15-54-34-88-35-66-68-105-104-161 56-50 105-104 147-170 6-29 17-55 20-85 6-72-103-151-170-159l2 1c-139-21-303 2-392 48-38 20-46 85-18 123 36 48 34 126 35 220 2 188-7 191-22 334-6 57 41 80 92 72zm83-631c46-6 199-69 222 5-8 54-52 92-132 119-94 31-95 61-95-72 0-28 2-45 5-52zm67 321l-3-1c1 1 2 1 3 1" id="L"/><path fill="#333" d="M562-231c-119 0-201 32-308 40-14 1-42-3-40-14 7-43 5-108 16-155 15-24 58-17 92-28 55-18 122-10 191-10 29 0 63-18 62-50l-1 1c9-54-30-90-85-89l2 1c-79-20-172-1-247 10 3-27 1-57 6-86 80-35 193-36 303-41 17-1 37-7 58-16 38-58-8-126-51-147l1 1c-50-22-116-3-173 4-55 6-120 24-173 38l1-1c-58 17-141 13-134 97 6 67 3 142 3 213 0 107-34 195-34 299 0 91 55 147 155 140 120-8 214-45 346-45 28 0 55-3 82-5h-6c53-8 92-74 55-130-9-16-23-28-41-35-26 5-52 8-80 8zM242-525v-1 1" id="M"/><path fill="#333" d="M70-181C36-106 39-36 121-28c46 4 59-41 69-68 14-40 27-86 43-123 28-31 91-34 132-52 22-9 42-12 57-14 23 70 34 146 54 220 8 29 38 43 83 43 40 0 60-20 60-60 0-87-40-149-50-230 28-18 51-84 14-113-11-9-44-19-50-27-27-105-52-214-82-316-19-65-108-61-136-9-73 134-133 295-189 435-24 59-31 107-56 161zm286-369c8 39 19 86 26 125-22 9-48 16-78 17 14-39 32-102 52-142" id="N"/><path fill="#333" d="M633-32c99 0 53-140 53-231 0-160 17-350-41-466-13-25-59-60-90-60-48-2-72 81-86 122-47 132-74 199-82 202-15-90-57-183-81-259-17-55-61-93-116-93-21 0-40 12-48 39-59 200-67 431-92 658C43-58 89 6 151-27c16-9 25-11 33-23 14-128 27-256 35-392 34 77 71 239 153 252 64-12 80-94 111-139 24-35 42-76 62-112 2 86 2 175 2 264 0 97 29 145 86 145" id="O"/><path fill="#333" d="M51-5c0 127 187 87 301 83 77-3 150 6 150-80 0-98-192-46-287-46H100C82-52 51-21 51-5" id="P"/><path fill="#333" d="M173-760c-47-53-124-8-124 56 35 130 84 269 116 396 17 67 41 127 68 184 43 96 91 124 167 76 102-105 142-279 200-428 31-80 47-165 47-255 0-62-20-93-61-93-46 0-73 38-88 112-32 153-82 289-137 426-12 30-22 44-23 44-63-154-99-377-167-518 1 1 2 1 2 0" id="Q"/><path fill="#333" d="M80-334C68-194 2 14 192-26c62-30 136-63 191-92 174-92 259-210 259-347 0-142-33-193-97-253-69-64-182-82-292-104-16-3-35-3-56-3-90 0-82 55-82 133 0 95-9 196-26 279l1-1c-6 25-8 57-10 80zm133 125c17-153 24-313 53-452 153-5 243 55 220 201l-1-2c-24 127-149 211-272 253zm48-441v3-3zm-8 53c0-1 0-1 1-2" id="R"/><g id="e"><use transform="matrix(0.031111111111111114,0,0,0.031111111111111114,0,0)" xlink:href="#H"/><use transform="matrix(0.031111111111111114,0,0,0.031111111111111114,21.871111111111112,0)" xlink:href="#I"/><use transform="matrix(0.031111111111111114,0,0,0.031111111111111114,39.480000000000004,0)" xlink:href="#J"/><use transform="matrix(0.031111111111111114,0,0,0.031111111111111114,59.14222222222223,0)" xlink:href="#K"/><use transform="matrix(0.031111111111111114,0,0,0.031111111111111114,81.51111111111112,0)" xlink:href="#L"/><use transform="matrix(0.031111111111111114,0,0,0.031111111111111114,100.7688888888889,0)" xlink:href="#M"/><use transform="matrix(0.031111111111111114,0,0,0.031111111111111114,121.52000000000001,0)" xlink:href="#N"/><use transform="matrix(0.031111111111111114,0,0,0.031111111111111114,139.84444444444446,0)" xlink:href="#O"/><use transform="matrix(0.031111111111111114,0,0,0.031111111111111114,160.78222222222223,0)" xlink:href="#P"/><use transform="matrix(0.031111111111111114,0,0,0.031111111111111114,175.62222222222223,0)" xlink:href="#Q"/><use transform="matrix(0.031111111111111114,0,0,0.031111111111111114,194.7866666666667,0)" xlink:href="#F"/><use transform="matrix(0.031111111111111114,0,0,0.031111111111111114,213.98222222222225,0)" xlink:href="#R"/></g><g id="f"><use transform="matrix(0.031111111111111114,0,0,0.031111111111111114,0,0)" xlink:href="#H"/><use transform="matrix(0.031111111111111114,0,0,0.031111111111111114,21.871111111111112,0)" xlink:href="#I"/><use transform="matrix(0.031111111111111114,0,0,0.031111111111111114,39.480000000000004,0)" xlink:href="#J"/><use transform="matrix(0.031111111111111114,0,0,0.031111111111111114,59.14222222222223,0)" xlink:href="#K"/><use transform="matrix(0.031111111111111114,0,0,0.031111111111111114,81.51111111111112,0)" xlink:href="#L"/><use transform="matrix(0.031111111111111114,0,0,0.031111111111111114,100.7688888888889,0)" xlink:href="#M"/><use transform="matrix(0.031111111111111114,0,0,0.031111111111111114,121.52000000000001,0)" xlink:href="#N"/><use transform="matrix(0.031111111111111114,0,0,0.031111111111111114,139.84444444444446,0)" xlink:href="#O"/><use transform="matrix(0.031111111111111114,0,0,0.031111111111111114,160.78222222222223,0)" xlink:href="#P"/><use transform="matrix(0.031111111111111114,0,0,0.031111111111111114,175.62222222222223,0)" xlink:href="#R"/><use transform="matrix(0.031111111111111114,0,0,0.031111111111111114,194.44444444444446,0)" xlink:href="#N"/><use transform="matrix(0.031111111111111114,0,0,0.031111111111111114,212.7688888888889,0)" xlink:href="#K"/><use transform="matrix(0.031111111111111114,0,0,0.031111111111111114,235.13777777777779,0)" xlink:href="#N"/></g><g id="g"><use transform="matrix(0.031111111111111114,0,0,0.031111111111111114,0,0)" xlink:href="#L"/><use transform="matrix(0.031111111111111114,0,0,0.031111111111111114,19.25777777777778,0)" xlink:href="#J"/><use transform="matrix(0.031111111111111114,0,0,0.031111111111111114,38.92,0)" xlink:href="#K"/></g><path fill="#333" d="M221-124c-5 68 57 122 114 88 56-69 74-227 103-315 43-131 137-218 258-350 11-10 13-24 13-44 0-51-23-76-70-76-24 0-64 28-115 76-59 54-122 144-170 207-38-22-100-93-118-140l2 2c-5-9-14-22-18-32l2 3c-24-42-35-120-100-120-46 0-72 39-72 84 30 138 114 263 217 331 10 7 14 13 14 18" id="S"/><g id="h"><use transform="matrix(0.031111111111111114,0,0,0.031111111111111114,0,0)" xlink:href="#H"/><use transform="matrix(0.031111111111111114,0,0,0.031111111111111114,21.871111111111112,0)" xlink:href="#I"/><use transform="matrix(0.031111111111111114,0,0,0.031111111111111114,39.480000000000004,0)" xlink:href="#J"/><use transform="matrix(0.031111111111111114,0,0,0.031111111111111114,59.14222222222223,0)" xlink:href="#K"/><use transform="matrix(0.031111111111111114,0,0,0.031111111111111114,81.51111111111112,0)" xlink:href="#L"/><use transform="matrix(0.031111111111111114,0,0,0.031111111111111114,100.7688888888889,0)" xlink:href="#M"/><use transform="matrix(0.031111111111111114,0,0,0.031111111111111114,121.52000000000001,0)" xlink:href="#N"/><use transform="matrix(0.031111111111111114,0,0,0.031111111111111114,139.84444444444446,0)" xlink:href="#O"/><use transform="matrix(0.031111111111111114,0,0,0.031111111111111114,160.78222222222223,0)" xlink:href="#P"/><use transform="matrix(0.031111111111111114,0,0,0.031111111111111114,175.62222222222223,0)" xlink:href="#L"/><use transform="matrix(0.031111111111111114,0,0,0.031111111111111114,194.88000000000002,0)" xlink:href="#R"/><use transform="matrix(0.031111111111111114,0,0,0.031111111111111114,213.70222222222225,0)" xlink:href="#S"/></g><path fill="#333" d="M776-292c25-58 39-113 39-189 0-186-105-335-289-347-115-8-264 80-335 176-54 72-128 174-130 306-17 72 19 171 60 209C155-80 284-35 371-30c125 8 185-36 261-79 69-40 112-103 145-184zM507-656c91 0 151 106 151 197 0 107-87 221-167 253-29 11-88 21-133 13l1 1c-87-19-148-53-141-159 8-119 91-193 166-254 44-35 86-51 123-51" id="T"/><path fill="#333" d="M801-816c-117 0-37 170-64 263l1-1c-15 67-25 131-43 194-17 60-32 90-42 90-80-84-72-255-129-356-25-43-100-46-123 6-3 9-10 16-13 25l1-1c-8 20-18 38-27 56h3c-37 81-75 146-113 224-14 27-22 40-25 40-20-121-1-292-18-429-7-54-40-79-81-79-96 0-69 186-67 280 4 147 38 414 86 451 74 56 110 33 172-59 29-43 113-203 127-220 48 94 116 279 229 289 100-11 151-212 184-307 29-83 39-155 39-263 0-135-32-203-97-203" id="U"/><path fill="#333" d="M216-409c9 8 16 19 19 30-1 9 8 9 10 13 37 63 77 111 116 172 37 57 163 169 227 172 23 0 40-11 52-32 33-170 13-434 6-619-3-83-39-143-107-149-45-4-69 31-66 79 10 146 31 283 13 439-51-61-104-153-152-217-31-42-51-96-76-155l1 1c-28-66-40-134-124-136-97-1-69 150-80 250-17 150 12 295 5 444-2 50 15 62 51 88 19 2 42 3 59 3 35 2 66-46 57-86l1 1c-10-94-14-194-12-298zm39 2c4 1 2 2 0 3v-3zm229 115c0-2 0-3 1-4-1 1-1 3-1 4" id="V"/><g id="i"><use transform="matrix(0.031111111111111114,0,0,0.031111111111111114,0,0)" xlink:href="#R"/><use transform="matrix(0.031111111111111114,0,0,0.031111111111111114,18.822222222222223,0)" xlink:href="#T"/><use transform="matrix(0.031111111111111114,0,0,0.031111111111111114,43.80444444444444,0)" xlink:href="#U"/><use transform="matrix(0.031111111111111114,0,0,0.031111111111111114,70.84,0)" xlink:href="#V"/><use transform="matrix(0.031111111111111114,0,0,0.031111111111111114,90.81333333333333,0)" xlink:href="#J"/><use transform="matrix(0.031111111111111114,0,0,0.031111111111111114,110.47555555555556,0)" xlink:href="#K"/><use transform="matrix(0.031111111111111114,0,0,0.031111111111111114,132.84444444444443,0)" xlink:href="#L"/><use transform="matrix(0.031111111111111114,0,0,0.031111111111111114,152.10222222222222,0)" xlink:href="#M"/><use transform="matrix(0.031111111111111114,0,0,0.031111111111111114,172.85333333333332,0)" xlink:href="#N"/><use transform="matrix(0.031111111111111114,0,0,0.031111111111111114,191.17777777777778,0)" xlink:href="#O"/><use transform="matrix(0.031111111111111114,0,0,0.031111111111111114,212.11555555555555,0)" xlink:href="#P"/><use transform="matrix(0.031111111111111114,0,0,0.031111111111111114,226.95555555555555,0)" xlink:href="#Q"/><use transform="matrix(0.031111111111111114,0,0,0.031111111111111114,246.12,0)" xlink:href="#F"/><use transform="matrix(0.031111111111111114,0,0,0.031111111111111114,265.31555555555553,0)" xlink:href="#R"/></g><g id="j"><use transform="matrix(0.031111111111111114,0,0,0.031111111111111114,0,0)" xlink:href="#R"/><use transform="matrix(0.031111111111111114,0,0,0.031111111111111114,18.822222222222223,0)" xlink:href="#T"/><use transform="matrix(0.031111111111111114,0,0,0.031111111111111114,43.80444444444444,0)" xlink:href="#U"/><use transform="matrix(0.031111111111111114,0,0,0.031111111111111114,70.84,0)" xlink:href="#V"/><use transform="matrix(0.031111111111111114,0,0,0.031111111111111114,90.81333333333333,0)" xlink:href="#J"/><use transform="matrix(0.031111111111111114,0,0,0.031111111111111114,110.47555555555556,0)" xlink:href="#K"/><use transform="matrix(0.031111111111111114,0,0,0.031111111111111114,132.84444444444443,0)" xlink:href="#L"/><use transform="matrix(0.031111111111111114,0,0,0.031111111111111114,152.10222222222222,0)" xlink:href="#M"/><use transform="matrix(0.031111111111111114,0,0,0.031111111111111114,172.85333333333332,0)" xlink:href="#N"/><use transform="matrix(0.031111111111111114,0,0,0.031111111111111114,191.17777777777778,0)" xlink:href="#O"/><use transform="matrix(0.031111111111111114,0,0,0.031111111111111114,212.11555555555555,0)" xlink:href="#P"/><use transform="matrix(0.031111111111111114,0,0,0.031111111111111114,226.95555555555555,0)" xlink:href="#L"/><use transform="matrix(0.031111111111111114,0,0,0.031111111111111114,246.21333333333334,0)" xlink:href="#R"/><use transform="matrix(0.031111111111111114,0,0,0.031111111111111114,265.03555555555556,0)" xlink:href="#S"/></g><g id="k"><use transform="matrix(0.024444444444444446,0,0,0.024444444444444446,0,0)" xlink:href="#z"/><use transform="matrix(0.024444444444444446,0,0,0.024444444444444446,21.21777777777778,0)" xlink:href="#A"/><use transform="matrix(0.024444444444444446,0,0,0.024444444444444446,36.74,0)" xlink:href="#B"/><use transform="matrix(0.024444444444444446,0,0,0.024444444444444446,51.504444444444445,0)" xlink:href="#C"/><use transform="matrix(0.024444444444444446,0,0,0.024444444444444446,69.08,0)" xlink:href="#D"/></g><path fill="#fff" d="M489-785c107 0 154 111 116 214-29 79-213 255-300 345-26 27-38 39-16 63 95 2 204-5 287 7 22 4 49 51 49 77 0 63-95 31-141 31H320C244-52 124 2 73 14 50 19-1-26 3-53c6-51 111-140 150-182 94-98 182-189 275-285 55-57 80-102 80-129 1-31-28-24-56-21-120 11-265 81-296 145-13 26-15 67-56 65s-51-21-51-66c0-144 158-200 287-235 61-16 112-24 153-24" id="W"/><use transform="matrix(0.024444444444444446,0,0,0.024444444444444446,0,0)" xlink:href="#W" id="l"/><path fill="#fff" d="M326-672c47-13 117-11 117-73 0-69-77-55-133-49-71 9-36-80-58-137-21-55-106-22-95 35-4 10 15 48-3 53-23-22-47-62-88-62-20-1-38 17-37 37 2 32 48 80 67 106-10 12-32 12-55 11-79 22-11 125 48 117 33-5 73-11 66 36-8 59 3 111 63 117 42 4 32-88 52-111 15 5 75 36 84 37 20 2 38-22 37-42 6-25-64-61-65-75" id="X"/><use transform="matrix(0.024444444444444446,0,0,0.024444444444444446,0,0)" xlink:href="#X" id="m"/><path fill="#fff" d="M722-498c18-70 6-160 6-241 0-38 16-57 49-57 55 0 82 64 82 193 1 204-63 347-126 491-54 125-124 110-196 9-30-42-54-91-82-146-27-53-43-79-49-79-8-17-88 136-114 182C269-106 193 9 170-1 96-15 86-47 66-129 33-267 17-480 18-657c0-70 18-105 54-105 39 0 66 36 68 87 4 137-4 277 12 406 12 100 67-12 84-47 47-96 102-197 139-285 18-41 78-38 96-4 52 97 51 251 110 344 50 78 71 31 104-70 17-53 22-108 37-167" id="Y"/><use transform="matrix(0.024444444444444446,0,0,0.024444444444444446,0,0)" xlink:href="#Y" id="n"/><g id="o"><use transform="matrix(0.031111111111111114,0,0,0.031111111111111114,0,0)" xlink:href="#R"/><use transform="matrix(0.031111111111111114,0,0,0.031111111111111114,18.822222222222223,0)" xlink:href="#T"/><use transform="matrix(0.031111111111111114,0,0,0.031111111111111114,43.80444444444444,0)" xlink:href="#U"/><use transform="matrix(0.031111111111111114,0,0,0.031111111111111114,70.84,0)" xlink:href="#V"/><use transform="matrix(0.031111111111111114,0,0,0.031111111111111114,90.81333333333333,0)" xlink:href="#J"/><use transform="matrix(0.031111111111111114,0,0,0.031111111111111114,110.47555555555556,0)" xlink:href="#K"/><use transform="matrix(0.031111111111111114,0,0,0.031111111111111114,132.84444444444443,0)" xlink:href="#L"/><use transform="matrix(0.031111111111111114,0,0,0.031111111111111114,152.10222222222222,0)" xlink:href="#M"/><use transform="matrix(0.031111111111111114,0,0,0.031111111111111114,172.85333333333332,0)" xlink:href="#N"/><use transform="matrix(0.031111111111111114,0,0,0.031111111111111114,191.17777777777778,0)" xlink:href="#O"/><use transform="matrix(0.031111111111111114,0,0,0.031111111111111114,212.11555555555555,0)" xlink:href="#P"/><use transform="matrix(0.031111111111111114,0,0,0.031111111111111114,226.95555555555555,0)" xlink:href="#R"/><use transform="matrix(0.031111111111111114,0,0,0.031111111111111114,245.77777777777777,0)" xlink:href="#N"/><use transform="matrix(0.031111111111111114,0,0,0.031111111111111114,264.1022222222222,0)" xlink:href="#K"/><use transform="matrix(0.031111111111111114,0,0,0.031111111111111114,286.4711111111111,0)" xlink:href="#N"/></g></defs></g></svg>