<svg xmlns="http://www.w3.org/2000/svg" xmlns:xlink="http://www.w3.org/1999/xlink" xmlns:lucid="lucid" width="1690.14" height="587.41"><g transform="translate(-293.58296685344817 -297.85119875732505)" lucid:page-tab-id="0_0"><path d="M793.13 307.85a6 6 0 0 1 6-6h651.07a6 6 0 0 1 6 6v567.4a6 6 0 0 1-6 6H799.13a6 6 0 0 1-6-6z" stroke="#e81313" stroke-width="8" fill="#f8ad96"/><use xlink:href="#a" transform="matrix(1,0,0,1,805.1266863929914,313.85119875732505) translate(131.2 266.8275)"/><use xlink:href="#b" transform="matrix(1,0,0,1,805.1266863929914,313.85119875732505) translate(272.64 266.8275)"/><use xlink:href="#c" transform="matrix(1,0,0,1,805.1266863929914,313.85119875732505) translate(405.92 266.8275)"/><use xlink:href="#d" transform="matrix(1,0,0,1,805.1266863929914,313.85119875732505) translate(65.72000000000003 355.1075)"/><use xlink:href="#e" transform="matrix(1,0,0,1,805.1266863929914,313.85119875732505) translate(399.2 355.1075)"/><use xlink:href="#f" transform="matrix(1,0,0,1,805.1266863929914,313.85119875732505) translate(62.84000000000003 412.5475)"/><use xlink:href="#g" transform="matrix(1,0,0,1,805.1266863929914,313.85119875732505) translate(185.24000000000004 412.5475)"/><use xlink:href="#h" transform="matrix(1,0,0,1,805.1266863929914,313.85119875732505) translate(395.76 412.5475)"/><use xlink:href="#i" transform="matrix(1,0,0,1,805.1266863929914,313.85119875732505) translate(239.52 469.9875)"/><use xlink:href="#j" transform="matrix(1,0,0,1,805.1266863929914,313.85119875732505) translate(302.08000000000004 469.9875)"/><use xlink:href="#k" transform="matrix(1,0,0,1,805.1266863929914,313.85119875732505) translate(374.84000000000003 469.9875)"/><path d="M581.33 355.88H688.3M581.44 355.88h-4.1" stroke="#1071e5" stroke-width="8" fill="none"/><path d="M706.58 355.88l-14.27 4.63v-9.26z" stroke="#1071e5" stroke-width="8" fill="#1071e5"/><path d="M293.58 327.64a6 6 0 0 1 6-6h247.6a6 6 0 0 1 6 6v56.47a6 6 0 0 1-6 6h-247.6a6 6 0 0 1-6-6z" fill="none"/><use xlink:href="#l" transform="matrix(1,0,0,1,305.5829668534483,333.6440565467025) translate(130.31555555555553 37.57333333333334)"/><path d="M576.6 664.1a6 6 0 0 1 5.97-6.02l104.83-.34a6 6 0 0 0 5.98-6.02l-.02-8.6a2.27 2.27 0 0 1 3.96-1.5l24.2 27.26a6.8 6.8 0 0 1 .04 9l-24.04 27.43a2.27 2.27 0 0 1-3.97-1.48l-.03-8.6a6 6 0 0 0-6.02-5.98l-104.83.34a6 6 0 0 1-6.02-6z" stroke="#1071e5" stroke-width="8" fill="#58c2bf"/><path d="M293.58 628.94a6 6 0 0 1 6-6h245.8a6 6 0 0 1 6 6v88.22a6 6 0 0 1-6 6h-245.8a6 6 0 0 1-6-6z" fill="none"/><use xlink:href="#m" transform="matrix(1,0,0,1,305.5829668534483,634.9358545884163) translate(202.58666666666667 64.34)"/><path d="M581.33 434.56H688.3M581.44 434.56h-4.1" stroke="#1071e5" stroke-width="8" fill="none"/><path d="M706.58 434.56l-14.27 4.63v-9.28z" stroke="#1071e5" stroke-width="8" fill="#1071e5"/><path d="M293.58 406.32a6 6 0 0 1 6-6h247.6a6 6 0 0 1 6 6v56.47a6 6 0 0 1-6 6h-247.6a6 6 0 0 1-6-6z" fill="none"/><use xlink:href="#n" transform="matrix(1,0,0,1,305.58296685344817,412.32210208644494) translate(133.20888888888888 37.57333333333334)"/><path d="M581.33 569.58H688.3M581.44 569.58h-4.1" stroke="#1071e5" stroke-width="8" fill="none"/><path d="M706.58 569.58l-14.27 4.64v-9.27z" stroke="#1071e5" stroke-width="8" fill="#1071e5"/><path d="M293.58 541.35a6 6 0 0 1 6-6h247.6a6 6 0 0 1 6 6v56.47a6 6 0 0 1-6 6h-247.6a6 6 0 0 1-6-6z" fill="none"/><use xlink:href="#o" transform="matrix(1,0,0,1,305.58296685344817,547.3494403420395) translate(64.60888888888886 37.57333333333334)"/><path d="M578.3 786.6a6 6 0 0 1 5.98-6.03l104.94-.34a6 6 0 0 0 5.98-6.02l-.03-8.6a2.27 2.27 0 0 1 3.97-1.5l24.2 27.27a6.8 6.8 0 0 1 .04 9l-24.04 27.43a2.27 2.27 0 0 1-3.97-1.5l-.03-8.6a6 6 0 0 0-6.02-5.97l-104.94.33a6 6 0 0 1-6.02-5.98z" stroke="#1071e5" stroke-width="8" fill="#58c2bf"/><path d="M293.58 751.98a6 6 0 0 1 6-6h247.6a6 6 0 0 1 6 6v88.23a6 6 0 0 1-6 6h-247.6a6 6 0 0 1-6-6z" fill="none"/><g><use xlink:href="#p" transform="matrix(1,0,0,1,305.5829668534483,757.983968639495) translate(201.65333333333334 64.34)"/></g><g><path d="M1532.55 711.73a6 6 0 0 1 5.98-6.02l104.94-.33a6 6 0 0 0 6-6.02l-.04-8.6a2.27 2.27 0 0 1 3.96-1.5l24.2 27.26a6.8 6.8 0 0 1 .03 9l-24.03 27.44a2.27 2.27 0 0 1-3.98-1.5l-.03-8.6a6 6 0 0 0-6.02-5.97l-104.95.34a6 6 0 0 1-6.02-5.97z" stroke="#1071e5" stroke-width="8" fill="#58c2bf"/></g><path d="M1535.6 571h106.97M1535.7 571h-4.1" stroke="#1071e5" stroke-width="8" fill="none"/><path d="M1660.83 571l-14.26 4.62v-9.27z" stroke="#1071e5" stroke-width="8" fill="#1071e5"/><path d="M1724.13 675.72a6 6 0 0 1 6-6h247.6a6 6 0 0 1 6 6v88.23a6 6 0 0 1-6 6h-247.6a6 6 0 0 1-6-6z" fill="none"/><g><use xlink:href="#q" transform="matrix(1,0,0,1,1736.1248026644118,681.7216287874305) translate(0 64.34)"/></g><path d="M1724.13 541.35a6 6 0 0 1 6-6h247.6a6 6 0 0 1 6 6v56.47a6 6 0 0 1-6 6h-247.6a6 6 0 0 1-6-6z" fill="none"/><g><use xlink:href="#r" transform="matrix(1,0,0,1,1736.1248026644118,547.3494403420395) translate(0 37.57333333333334)"/></g><defs><path fill="#e81313" d="M103-24C79 10-2-14 8-59c42-186 129-353 193-524 23-62 63-135 99-197 39-38 106-10 109 47 27 100 51 209 81 307 8 25 72 24 72 63 0 44-26 46-37 75 12 83 46 156 55 243 7 63-106 47-114 11-13-58-36-170-57-231-3-4-7-8-9-14-69 4-134 40-198 52-53 21-53 108-81 160-4 16-8 29-18 43zm215-551c-16 18-92 195-73 208 46 2 100-12 123-31-5-30-32-162-38-171-2-3-6-5-12-6" id="s"/><use transform="matrix(0.16,0,0,0.16,0,0)" xlink:href="#s" id="a"/><path fill="#e81313" d="M11-110C-14-66 45-13 76-8c17 2 29-20 35-34 46-87 86-151 130-233 80-148 195-281 286-421 44-66-51-145-100-70C284-548 148-351 11-110" id="t"/><use transform="matrix(0.16,0,0,0.16,0,0)" xlink:href="#t" id="b"/><path fill="#e81313" d="M68-174c-8-157-1-333-1-488 0-23-21-28-12-60 24-87 141-85 256-77 161 12 317 42 251 258-5 17-40 45-44 60 15 30 85 80 98 123 62 108 25 192-76 258C455-45 341-9 207-4 145-2 19-30 19-85c0-36 51-41 49-89zm137-510c-18 6-26 137-16 192 30 22 66 2 112-6 70-13 158-95 159-132 17-68-169-82-255-54zm-15 330c-15 57-2 155 5 215 6 4 6 12 18 11 101-5 211-32 267-82 52-46 58-91 12-140s-73-73-81-73c-39 14-121 48-173 54-15 2-34 14-48 15" id="u"/><use transform="matrix(0.16,0,0,0.16,0,0)" xlink:href="#u" id="c"/><path fill="#e81313" d="M24-128c0-158-18-313-5-472 6-74-11-192 62-191 78 1 88 68 113 130 59 143 102 191 174 297 50 73 81 109 92 109 8 0 12-3 13-9 24-163 3-322-12-477-6-63 62-76 101-37 65 64 45 212 54 340 10 141 7 304-15 413-8 15-20 23-37 23-76 0-203-132-244-200-33-54-79-109-116-169l4 4c-9-20-41-55-54-51-14 102-5 244 6 344 3 30-15 69-41 68-9 0-28-1-56-3-44-28-39-45-39-119" id="v"/><path fill="#e81313" d="M44-443c79-191 208-366 448-366 141 0 239 118 267 253 46 222-61 413-213 490-83 42-221 78-338 30-55-23-106-43-129-82-26-14-80-140-57-202 2-41 8-89 22-123zm103 115c1 136 75 191 208 191 130 0 180-50 241-135 38-53 55-111 55-169 0-109-73-236-179-227-143 12-260 151-311 271-9 24-14 47-14 69" id="w"/><path fill="#e81313" d="M44-228v-78h244v78H44" id="x"/><path fill="#e81313" d="M23-677c-68-88 127-122 212-122 113 0 253 24 291 82 92 144-48 310-153 365-52 27-102 48-161 69-56 20-53 15-58 80-4 49-8 103-13 153-3 31-19 46-43 46-44 0-65-28-63-81 5-162 8-330 16-486 3-53-4-75-28-106zm415 73c0-44-44-66-132-66-78 0-124 8-135 26-10 16-14 89-14 218 0 44 22 39 57 25 83-34 224-115 224-203" id="y"/><path fill="#e81313" d="M292-638c-67 2-113 14-176 21-81 9-112-68-58-103 132-46 304-52 470-66l65 5c50 52 43 111-50 111-45 0-75 15-112 18-18 16-19 83-24 152-7 108-21 214-33 322-5 46 36 20 67 20 54 0 81-10 139-16 43 25 50 62 23 110-151 29-311 50-490 79C58 24-8 22 3-44c14-83 161-45 224-90 22-16 24-69 29-107 17-126 33-258 36-397" id="z"/><path fill="#e81313" d="M330-158c82-22 193-18 286-31 38 11 58 81 24 113-25 24-71 25-116 25-135 0-238 34-358 47C61 7 4-52 15-159c12-113 37-213 32-340-2-59 2-121-2-178-2-44 35-62 81-61 104-31 222-52 345-64 68-7 103 34 111 94 2 12-3 22-9 31-33 14-62 15-103 16-100 2-196 10-270 40h-8c-18 23-11 79-15 106-1 13 5 22 16 25 82-10 176-25 264-12 44 7 78 26 71 72-7 49-76 30-125 30-78 0-138 22-210 29-24 1-35 28-36 52-2 41-10 83-8 126-19 84 122 51 181 35" id="A"/><path fill="#e81313" d="M21-302C-7-136 9 24 196-12c147-28 263-93 386-142 57-23 26-120-26-120-111 32-240 115-378 126-13 1-22-26-25-45 30-174 59-350 88-524 10-62-86-124-120-61-39 73-49 196-69 277-19 77-22 145-31 199" id="B"/><path fill="#e81313" d="M24-128c0-158-18-313-5-472 6-74-11-192 62-191 78 1 88 68 113 130 59 143 102 191 174 297 50 73 81 109 92 109 8 0 12-3 13-9 24-163 3-322-12-477-6-63 62-76 101-37 65 64 45 212 54 340 10 141 7 304-15 413-8 15-20 23-37 23-76 0-203-132-244-200-33-54-79-109-116-169l4 4c-9-20-41-55-54-51-14 102-5 244 6 344 3 30-15 69-41 68-9 0-28-1-56-3-44-28-39-45-39-119" id="C"/><path fill="#e81313" d="M19-91c0-222 71-428 58-668-3-62 121-44 170-33 118 27 229 50 293 128 44 53 63 97 63 217 0 165-189 328-383 400-36 13-62 45-108 45-66 0-93-23-93-89zm185-582c-30 151-43 322-58 489 5 39 27 28 60 14 129-54 276-147 276-304 0-155-106-203-278-199" id="D"/><g id="d"><use transform="matrix(0.04,0,0,0.04,0,0)" xlink:href="#v"/><use transform="matrix(0.04,0,0,0.04,25.64,0)" xlink:href="#w"/><use transform="matrix(0.04,0,0,0.04,59.120000000000005,0)" xlink:href="#v"/><use transform="matrix(0.04,0,0,0.04,84.75999999999998,0)" xlink:href="#x"/><use transform="matrix(0.04,0,0,0.04,97.99999999999999,0)" xlink:href="#y"/><use transform="matrix(0.04,0,0,0.04,120.55999999999999,0)" xlink:href="#z"/><use transform="matrix(0.04,0,0,0.04,145.95999999999998,0)" xlink:href="#y"/><use transform="matrix(0.04,0,0,0.04,168.51999999999995,0)" xlink:href="#A"/><use transform="matrix(0.04,0,0,0.04,195.15999999999997,0)" xlink:href="#B"/><use transform="matrix(0.04,0,0,0.04,219.75999999999996,0)" xlink:href="#z"/><use transform="matrix(0.04,0,0,0.04,245.15999999999997,0)" xlink:href="#C"/><use transform="matrix(0.04,0,0,0.04,270.79999999999995,0)" xlink:href="#A"/><use transform="matrix(0.04,0,0,0.04,297.43999999999994,0)" xlink:href="#D"/></g><path fill="#e81313" d="M19-91c0-222 71-428 58-668-3-62 121-44 170-33 118 27 229 50 293 128 44 53 63 97 63 217 0 165-189 328-383 400-36 13-62 45-108 45-66 0-93-23-93-89zm185-582c-30 151-43 322-58 489 5 39 27 28 60 14 129-54 276-147 276-304 0-155-106-203-278-199" id="E"/><path fill="#e81313" d="M109-735c-25-57-110-11-99 37 30 130 91 291 122 410 18 69 44 132 72 190 44 90 75 116 148 73 102-105 149-290 208-441 32-82 48-168 48-261 0-51-15-77-46-77-38 0-59 34-73 100-35 160-89 312-149 454-40 95-58 66-91-37-28-90-54-179-79-263-24-79-42-141-61-185" id="F"/><path fill="#e81313" d="M608-642l-20 77c-36 56-69 94-113 138-49 48-58 40-29 81 33 46 69 89 97 147 44 89 52 141 40 147-3 38-20 49-63 52-68 5-97-106-129-160-40-68-56-162-144-164-53-1-27 78-45 121-7 56-12 123-28 170C157-4 113 24 66-1 46-11 40-39 49-87c19-111 19-139 19-313 0-144 1-187-40-242-27-37-13-94 26-108 103-36 250-59 389-41 63 8 182 85 165 149zm-140 11c-10-39-42-58-96-57-53 12-154 21-179 43-5 9-8 31-8 65 0 151 19 135 127 94 94-36 148-79 156-145" id="G"/><g id="e"><use transform="matrix(0.04,0,0,0.04,0,0)" xlink:href="#E"/><use transform="matrix(0.04,0,0,0.04,24.16,0)" xlink:href="#z"/><use transform="matrix(0.04,0,0,0.04,49.56,0)" xlink:href="#F"/><use transform="matrix(0.04,0,0,0.04,74.16,0)" xlink:href="#z"/><use transform="matrix(0.04,0,0,0.04,99.56,0)" xlink:href="#D"/><use transform="matrix(0.04,0,0,0.04,123.72,0)" xlink:href="#A"/><use transform="matrix(0.04,0,0,0.04,150.36,0)" xlink:href="#G"/></g><path fill="#e81313" d="M722-498c18-70 6-160 6-241 0-38 16-57 49-57 55 0 82 64 82 193 1 204-63 347-126 491-54 125-124 110-196 9-30-42-54-91-82-146-27-53-43-79-49-79-8-17-88 136-114 182C269-106 193 9 170-1 96-15 86-47 66-129 33-267 17-480 18-657c0-70 18-105 54-105 39 0 66 36 68 87 4 137-4 277 12 406 12 100 67-12 84-47 47-96 102-197 139-285 18-41 78-38 96-4 52 97 51 251 110 344 50 78 71 31 104-70 17-53 22-108 37-167" id="H"/><path fill="#e81313" d="M593-790c58 0 99 54 77 117-5 13-15 16-35 14-70-7-152-3-229 7-31 20-24 81-26 127-4 138-16 277-16 422 0 32 4 70-21 83-26 36-88 7-103-20 1-182 10-346 21-521 2-27 11-81-18-84-73-7-138 11-206 3-20-18-39-18-32-51-3-78 74-91 145-91 129 0 251 6 369-8 25-3 49 2 74 2" id="I"/><path fill="#e81313" d="M107-780c100 15 51 176 51 272 0 29 23 25 56 24 33-11 175 4 171-42 9-67 4-153 14-224 12-14 39-57 70-50 51 0 74 34 69 103L490-47c-6 28-25 57-57 56-118-5-54-182-54-299 0-34 3-75-15-85-65 6-127 12-191 19-52 29-23 162-29 239C135-7 87 19 22-30 10-48 7-67 13-88c-16-100 8-215 8-322 0-127-9-364 86-370" id="J"/><g id="f"><use transform="matrix(0.04,0,0,0.04,0,0)" xlink:href="#H"/><use transform="matrix(0.04,0,0,0.04,34.72,0)" xlink:href="#z"/><use transform="matrix(0.04,0,0,0.04,60.120000000000005,0)" xlink:href="#I"/><use transform="matrix(0.04,0,0,0.04,88.88,0)" xlink:href="#J"/></g><path fill="#e81313" d="M103-24C79 10-2-14 8-59c42-186 129-353 193-524 23-62 63-135 99-197 39-38 106-10 109 47 27 100 51 209 81 307 8 25 72 24 72 63 0 44-26 46-37 75 12 83 46 156 55 243 7 63-106 47-114 11-13-58-36-170-57-231-3-4-7-8-9-14-69 4-134 40-198 52-53 21-53 108-81 160-4 16-8 29-18 43zm215-551c-16 18-92 195-73 208 46 2 100-12 123-31-5-30-32-162-38-171-2-3-6-5-12-6" id="K"/><path fill="#e81313" d="M68-174c-8-157-1-333-1-488 0-23-21-28-12-60 24-87 141-85 256-77 161 12 317 42 251 258-5 17-40 45-44 60 15 30 85 80 98 123 62 108 25 192-76 258C455-45 341-9 207-4 145-2 19-30 19-85c0-36 51-41 49-89zm137-510c-18 6-26 137-16 192 30 22 66 2 112-6 70-13 158-95 159-132 17-68-169-82-255-54zm-15 330c-15 57-2 155 5 215 6 4 6 12 18 11 101-5 211-32 267-82 52-46 58-91 12-140s-73-73-81-73c-39 14-121 48-173 54-15 2-34 14-48 15" id="L"/><g id="g"><use transform="matrix(0.04,0,0,0.04,0,0)" xlink:href="#F"/><use transform="matrix(0.04,0,0,0.04,24.6,0)" xlink:href="#K"/><use transform="matrix(0.04,0,0,0.04,48.08,0)" xlink:href="#G"/><use transform="matrix(0.04,0,0,0.04,72.8,0)" xlink:href="#z"/><use transform="matrix(0.04,0,0,0.04,98.2,0)" xlink:href="#K"/><use transform="matrix(0.04,0,0,0.04,121.68,0)" xlink:href="#L"/><use transform="matrix(0.04,0,0,0.04,147.4,0)" xlink:href="#B"/><use transform="matrix(0.04,0,0,0.04,172,0)" xlink:href="#A"/></g><path fill="#e81313" d="M521-275c40-33 108-24 108 34 0 49-75 103-210 183-80 47-247 72-323 10-66-54-95-101-82-218 12-106 41-136 91-224 55-96 145-209 240-278 32-23 68-33 107-33 86 2 108 61 107 158 0 55-15 82-44 82-55 1-25-116-79-110-132 15-229 223-291 334-48 86-31 226 81 218 122-9 217-92 295-156" id="M"/><path fill="#e81313" d="M192-85c-3 48 46 100 89 72 52-75 73-232 102-321 46-139 146-233 278-374 22-37 2-105-46-93-81 20-199 174-252 246-53 73-46 65-110 7-63-57-96-136-132-220-11-25-31-37-54-37-36-1-56 32-56 68 32 142 118 264 224 332 15 16 24 24 21 38" id="N"/><g id="h"><use transform="matrix(0.04,0,0,0.04,0,0)" xlink:href="#B"/><use transform="matrix(0.04,0,0,0.04,24.6,0)" xlink:href="#K"/><use transform="matrix(0.04,0,0,0.04,48.08,0)" xlink:href="#I"/><use transform="matrix(0.04,0,0,0.04,76.84,0)" xlink:href="#A"/><use transform="matrix(0.04,0,0,0.04,103.48,0)" xlink:href="#C"/><use transform="matrix(0.04,0,0,0.04,129.12,0)" xlink:href="#M"/><use transform="matrix(0.04,0,0,0.04,154.48000000000002,0)" xlink:href="#N"/></g><path fill="#e81313" d="M106-737c41-53 131 12 108 86-42 139-71 285-71 455 0 88 72 66 143 48 49-12 128-35 183-63 38-19 36-69 44-119 17-114 31-247 31-354 0-57 26-85 79-85 37 0 55 27 55 81 0 190-34 397-59 573 4 31 20 93-13 105-8 10-30 7-65-8-16-20-33-38-51-54C397-48 305 0 205 0 79 0 5-43 13-176c13-196 50-391 93-561" id="O"/><g id="i"><use transform="matrix(0.04,0,0,0.04,0,0)" xlink:href="#O"/><use transform="matrix(0.04,0,0,0.04,28.12,0)" xlink:href="#y"/></g><path fill="#e81313" d="M44-443c79-191 208-366 448-366 141 0 239 118 267 253 46 222-61 413-213 490-83 42-221 78-338 30-55-23-106-43-129-82-26-14-80-140-57-202 2-41 8-89 22-123zm103 115c1 136 75 191 208 191 130 0 180-50 241-135 38-53 55-111 55-169 0-109-73-236-179-227-143 12-260 151-311 271-9 24-14 47-14 69" id="P"/><g id="j"><use transform="matrix(0.04,0,0,0.04,0,0)" xlink:href="#I"/><use transform="matrix(0.04,0,0,0.04,28.76,0)" xlink:href="#P"/></g><use transform="matrix(0.04,0,0,0.04,0,0)" xlink:href="#v" id="k"/><path fill="#333" d="M603-651c0-97-31-172-120-170-102 1-164 75-214 132-81 91-127 171-181 277-30 59-52 189-20 259C104-74 204-5 336-32c36-8 99-21 126-45 137-73 206-137 206-191 0-71-82-87-131-48-77 62-149 135-266 145-97 8-92-125-54-190 41-69 89-162 136-217 46-53 83-81 115-81 30 22 11 105 74 105 41 0 61-32 61-97" id="Q"/><path fill="#333" d="M50-194C40-28 200 0 338-54c94-37 183-73 272-114 29-13 41-37 41-62 0-44-32-91-71-89-30 3-148 61-190 76l1-1c-45 16-110 45-165 45 1 0 0-5-3-15l1 1-3-11c27-168 60-333 82-502 10-75-103-138-147-64-8 14-17 32-20 54l1-1c-6 17-8 35-12 54l1-2C92-532 60-361 50-194" id="R"/><path fill="#333" d="M776-292c25-58 39-113 39-189 0-186-105-335-289-347-115-8-264 80-335 176-54 72-128 174-130 306-17 72 19 171 60 209C155-80 284-35 371-30c125 8 185-36 261-79 69-40 112-103 145-184zM507-656c91 0 151 106 151 197 0 107-87 221-167 253-29 11-88 21-133 13l1 1c-87-19-148-53-141-159 8-119 91-193 166-254 44-35 86-51 123-51" id="S"/><path fill="#333" d="M86-37c56 36 139-5 138-73 11-57 4-129 10-196 2-21 24-40 47-41 77 51 122 136 181 204 29 34 55 72 85 105 21 22 42 29 69 20 63 0 82-85 58-138-12-26-30-49-43-73-72-66-125-130-173-217-20-36 37-48 56-72 72-56 143-111 206-178 24-25 23-80-2-105-15-15-23-37-54-32-68 11-105 68-151 105-77 62-151 117-231 177l1-1c-14 9-26 15-40 17-4 1-4-5-4-10 2-64 19-118 27-177-7-58-45-102-106-102-94 0-67 143-86 224 1 117-10 239-18 358-4 66-25 170 30 205" id="T"/><g id="l"><use transform="matrix(0.031111111111111114,0,0,0.031111111111111114,0,0)" xlink:href="#Q"/><use transform="matrix(0.031111111111111114,0,0,0.031111111111111114,19.755555555555556,0)" xlink:href="#R"/><use transform="matrix(0.031111111111111114,0,0,0.031111111111111114,38.95111111111112,0)" xlink:href="#S"/><use transform="matrix(0.031111111111111114,0,0,0.031111111111111114,63.93333333333334,0)" xlink:href="#Q"/><use transform="matrix(0.031111111111111114,0,0,0.031111111111111114,83.6888888888889,0)" xlink:href="#T"/></g><path fill="#333" d="M70-181C36-106 39-36 121-28c46 4 59-41 69-68 14-40 27-86 43-123 28-31 91-34 132-52 22-9 42-12 57-14 23 70 34 146 54 220 8 29 38 43 83 43 40 0 60-20 60-60 0-87-40-149-50-230 28-18 51-84 14-113-11-9-44-19-50-27-27-105-52-214-82-316-19-65-108-61-136-9-73 134-133 295-189 435-24 59-31 107-56 161zm286-369c8 39 19 86 26 125-22 9-48 16-78 17 14-39 32-102 52-142" id="U"/><use transform="matrix(0.05333333333333334,0,0,0.05333333333333334,0,0)" xlink:href="#U" id="m"/><path fill="#333" d="M173-13c102-20 79-163 100-261 0-7 2-19 3-27-8-47 57-27 68-2 40 53 67 131 101 192l-1-1c19 54 59 97 104 92 43-5 70-16 73-58 13-23 7-37-3-71-6-23-15-54-34-88-35-66-68-105-104-161 56-50 105-104 147-170 6-29 17-55 20-85 6-72-103-151-170-159l2 1c-139-21-303 2-392 48-38 20-46 85-18 123 36 48 34 126 35 220 2 188-7 191-22 334-6 57 41 80 92 72zm83-631c46-6 199-69 222 5-8 54-52 92-132 119-94 31-95 61-95-72 0-28 2-45 5-52zm67 321l-3-1c1 1 2 1 3 1" id="V"/><path fill="#333" d="M562-231c-119 0-201 32-308 40-14 1-42-3-40-14 7-43 5-108 16-155 15-24 58-17 92-28 55-18 122-10 191-10 29 0 63-18 62-50l-1 1c9-54-30-90-85-89l2 1c-79-20-172-1-247 10 3-27 1-57 6-86 80-35 193-36 303-41 17-1 37-7 58-16 38-58-8-126-51-147l1 1c-50-22-116-3-173 4-55 6-120 24-173 38l1-1c-58 17-141 13-134 97 6 67 3 142 3 213 0 107-34 195-34 299 0 91 55 147 155 140 120-8 214-45 346-45 28 0 55-3 82-5h-6c53-8 92-74 55-130-9-16-23-28-41-35-26 5-52 8-80 8zM242-525v-1 1" id="W"/><path fill="#333" d="M57-191C48-107 192-27 280-27c97 0 254-99 310-169 39-50 65-83 62-166-5-159-71-204-245-204-43 0-128 16-175 9 33-54 156-102 224-125 50-17 39 63 85 49 7-1 26-9 26-8 27 1 48-28 46-55-5-57-86-138-163-130-107 11-177 44-249 89-64 40-151 103-160 192 11 108 88 147 219 147 67 0 156-12 208 7 20 7 30 17 30 30 0 34-38 77-114 130 1-1 0-1 1-1-43 46-146 46-193 1-15-15-43-32-65-30-41 4-67 29-70 70" id="X"/><path fill="#333" d="M450-642c81-9 156-10 231-4 26-13 36-35 36-67 0-81-74-112-168-99-140 19-319-7-450 25-32 17-54 46-55 91v-3c-8 40 21 48 42 67 65 10 127-7 202-2-4 181-23 372-21 564 20 34 93 71 130 26 41-30 19-113 21-180 3-100 12-190 18-284l-1 1c5-43-7-105 15-135" id="Y"/><g id="n"><use transform="matrix(0.031111111111111114,0,0,0.031111111111111114,0,0)" xlink:href="#V"/><use transform="matrix(0.031111111111111114,0,0,0.031111111111111114,19.25777777777778,0)" xlink:href="#W"/><use transform="matrix(0.031111111111111114,0,0,0.031111111111111114,40.00888888888889,0)" xlink:href="#X"/><use transform="matrix(0.031111111111111114,0,0,0.031111111111111114,59.67111111111112,0)" xlink:href="#W"/><use transform="matrix(0.031111111111111114,0,0,0.031111111111111114,80.42222222222223,0)" xlink:href="#Y"/></g><path fill="#333" d="M173-13c102-20 79-163 100-261 0-7 2-19 3-27-8-47 57-27 68-2 40 53 67 131 101 192l-1-1c19 54 59 97 104 92 43-5 70-16 73-58 13-23 7-37-3-71-6-23-15-54-34-88-35-66-68-105-104-161 56-50 105-104 147-170 6-29 17-55 20-85 6-72-103-151-170-159l2 1c-139-21-303 2-392 48-38 20-46 85-18 123 36 48 34 126 35 220 2 188-7 191-22 334-6 57 41 80 92 72zm83-631c46-6 199-69 222 5-8 54-52 92-132 119-94 31-95 61-95-72 0-28 2-45 5-52zm67 321l-3-1c1 1 2 1 3 1" id="Z"/><path fill="#333" d="M538-816c-103 0-163 58-224 101-94 66-163 160-217 269-55 110-57 202-8 302C140-41 287 1 427-52l-2 2c132-36 235-121 302-220 27-40 35-100 41-164 16-162-159-112-258-80-68 22-179 71-172 126 6 46 45 97 100 74 12-5 31-10 52-19l-1 1c26-11 53-18 79-30l-1 1c13-4 22-7 31-11-3 7-21 31-48 59-78 83-170 124-276 124-46 0-75-59-75-102 0-109 89-199 162-266 72-66 122-100 155-100 31 0 47 42 75 42 31 0 46-25 46-74 0-75-36-127-99-127" id="aa"/><path fill="#333" d="M51-5c0 127 187 87 301 83 77-3 150 6 150-80 0-98-192-46-287-46H100C82-52 51-21 51-5" id="ab"/><path fill="#333" d="M173-760c-47-53-124-8-124 56 35 130 84 269 116 396 17 67 41 127 68 184 43 96 91 124 167 76 102-105 142-279 200-428 31-80 47-165 47-255 0-62-20-93-61-93-46 0-73 38-88 112-32 153-82 289-137 426-12 30-22 44-23 44-63-154-99-377-167-518 1 1 2 1 2 0" id="ac"/><path fill="#333" d="M70-181C36-106 39-36 121-28c46 4 59-41 69-68 14-40 27-86 43-123 28-31 91-34 132-52 22-9 42-12 57-14 23 70 34 146 54 220 8 29 38 43 83 43 40 0 60-20 60-60 0-87-40-149-50-230 28-18 51-84 14-113-11-9-44-19-50-27-27-105-52-214-82-316-19-65-108-61-136-9-73 134-133 295-189 435-24 59-31 107-56 161zm286-369c8 39 19 86 26 125-22 9-48 16-78 17 14-39 32-102 52-142" id="ad"/><path fill="#333" d="M42-70c0 87 115 70 183 54l-1 1c168-29 298-46 412-66 37-61 31-107-28-144-59 12-120 13-178 22 6-108 31-217 31-327 0-55 4-92 13-111 33-5 63-9 97-17 108 2 116-84 54-143-115-14-235 13-335 17-9 1-17 2-25 5l1-1c-26 5-56 8-80 15l1-1c-64 12-112 20-118 81-8 89 119 84 199 63-6 0 1-1 3-1 14-2 24 0 41-3 2 126-16 240-31 354-4 28-1 78-21 91-30 19-88 18-126 30l1-1c-53 5-93 24-93 82" id="ae"/><path fill="#333" d="M80-334C68-194 2 14 192-26c62-30 136-63 191-92 174-92 259-210 259-347 0-142-33-193-97-253-69-64-182-82-292-104-16-3-35-3-56-3-90 0-82 55-82 133 0 95-9 196-26 279l1-1c-6 25-8 57-10 80zm133 125c17-153 24-313 53-452 153-5 243 55 220 201l-1-2c-24 127-149 211-272 253zm48-441v3-3zm-8 53c0-1 0-1 1-2" id="af"/><g id="o"><use transform="matrix(0.031111111111111114,0,0,0.031111111111111114,0,0)" xlink:href="#U"/><use transform="matrix(0.031111111111111114,0,0,0.031111111111111114,18.324444444444445,0)" xlink:href="#Z"/><use transform="matrix(0.031111111111111114,0,0,0.031111111111111114,37.58222222222223,0)" xlink:href="#aa"/><use transform="matrix(0.031111111111111114,0,0,0.031111111111111114,61.226666666666674,0)" xlink:href="#ab"/><use transform="matrix(0.031111111111111114,0,0,0.031111111111111114,76.06666666666668,0)" xlink:href="#ac"/><use transform="matrix(0.031111111111111114,0,0,0.031111111111111114,95.23111111111112,0)" xlink:href="#ad"/><use transform="matrix(0.031111111111111114,0,0,0.031111111111111114,113.55555555555557,0)" xlink:href="#R"/><use transform="matrix(0.031111111111111114,0,0,0.031111111111111114,132.75111111111113,0)" xlink:href="#ae"/><use transform="matrix(0.031111111111111114,0,0,0.031111111111111114,152.56888888888892,0)" xlink:href="#af"/></g><path fill="#333" d="M58-120c0 66 127 98 195 96 131-3 240-41 324-94 105-67 138-161 78-271-25-45-59-78-90-108 15-16 29-31 39-48 16-58 22-147-13-187-60-68-156-89-270-89-121 0-219 3-230 109-2 17 7 29 12 41-8 149-1 314 1 467 0 16-5 27-15 33-21 13-31 30-31 51zm202-60c-10-53-9-118-10-178 63-23 141-33 195-65-7-7 96 83 88 114-25 93-160 123-273 129zm3-494c24-10 55-12 83-12 84 0 126 16 126 47 0 24-82 99-136 108-28 5-50 14-82 14-4-50-7-126 9-157" id="ag"/><use transform="matrix(0.05333333333333334,0,0,0.05333333333333334,0,0)" xlink:href="#ag" id="p"/><path fill="#333" d="M615-24c62 1 58-78 47-128 24-171 55-356 55-541 0-64-23-96-70-96-71-1-99 44-94 123-15 114-18 275-42 381-6 28-34 35-58 44-76 27-135 58-212 58-42 0-27-72-25-115 4-84 25-172 38-251l-1 1c12-62 61-162-1-204l2 1c-43-49-114-25-124 36-27 163-69 328-78 509-3 62 15 122 50 146 37 26 87 40 150 40 41 0 198-44 262-67 14 13 28 28 43 46 26 11 45 17 58 17" id="ah"/><g id="q"><use transform="matrix(0.05333333333333334,0,0,0.05333333333333334,0,0)" xlink:href="#V"/><use transform="matrix(0.05333333333333334,0,0,0.05333333333333334,33.013333333333335,0)" xlink:href="#W"/><use transform="matrix(0.05333333333333334,0,0,0.05333333333333334,68.58666666666667,0)" xlink:href="#X"/><use transform="matrix(0.05333333333333334,0,0,0.05333333333333334,102.29333333333335,0)" xlink:href="#ah"/><use transform="matrix(0.05333333333333334,0,0,0.05333333333333334,139.7866666666667,0)" xlink:href="#R"/><use transform="matrix(0.05333333333333334,0,0,0.05333333333333334,172.69333333333336,0)" xlink:href="#Y"/></g><g id="r"><use transform="matrix(0.031111111111111114,0,0,0.031111111111111114,0,0)" xlink:href="#V"/><use transform="matrix(0.031111111111111114,0,0,0.031111111111111114,19.25777777777778,0)" xlink:href="#W"/><use transform="matrix(0.031111111111111114,0,0,0.031111111111111114,40.00888888888889,0)" xlink:href="#X"/><use transform="matrix(0.031111111111111114,0,0,0.031111111111111114,59.67111111111112,0)" xlink:href="#ah"/><use transform="matrix(0.031111111111111114,0,0,0.031111111111111114,81.54222222222222,0)" xlink:href="#R"/><use transform="matrix(0.031111111111111114,0,0,0.031111111111111114,100.73777777777778,0)" xlink:href="#Y"/><use transform="matrix(0.031111111111111114,0,0,0.031111111111111114,123.10666666666667,0)" xlink:href="#ab"/><use transform="matrix(0.031111111111111114,0,0,0.031111111111111114,137.94666666666666,0)" xlink:href="#ac"/><use transform="matrix(0.031111111111111114,0,0,0.031111111111111114,157.11111111111111,0)" xlink:href="#ad"/><use transform="matrix(0.031111111111111114,0,0,0.031111111111111114,175.43555555555557,0)" xlink:href="#R"/><use transform="matrix(0.031111111111111114,0,0,0.031111111111111114,194.63111111111112,0)" xlink:href="#ae"/><use transform="matrix(0.031111111111111114,0,0,0.031111111111111114,214.44888888888892,0)" xlink:href="#af"/></g></defs></g></svg>